<svg width="24" height="25" viewBox="0 0 24 25" fill="none" xmlns="http://www.w3.org/2000/svg">
<path d="M5.5 16.0739C10.5 18.5739 13.5 18.5739 18.5 16.0739" stroke="#FF7A01" stroke-width="1.5" stroke-linecap="round" stroke-linejoin="round"/>
<path d="M15.5 17.5739L16.5 19.5739C16.5 19.5739 20.671 18.2459 22 16.0739C22 15.0739 22.53 7.92685 19 5.57385C17.5 4.57385 15 4.07385 15 4.07385L14 6.07385H12" stroke="#FF7A01" stroke-width="1.5" stroke-linecap="round" stroke-linejoin="round"/>
<path d="M8.528 17.5739L7.528 19.5739C7.528 19.5739 3.357 18.2459 2.028 16.0739C2.028 15.0739 1.498 7.92685 5.028 5.57385C6.528 4.57385 9.028 4.07385 9.028 4.07385L10.028 6.07385H12.028" stroke="#FF7A01" stroke-width="1.5" stroke-linecap="round" stroke-linejoin="round"/>
<path d="M8.5 14.0739C7.672 14.0739 7 13.1789 7 12.0739C7 10.9689 7.672 10.0739 8.5 10.0739C9.328 10.0739 10 10.9689 10 12.0739C10 13.1789 9.328 14.0739 8.5 14.0739ZM15.5 14.0739C14.672 14.0739 14 13.1789 14 12.0739C14 10.9689 14.672 10.0739 15.5 10.0739C16.328 10.0739 17 10.9689 17 12.0739C17 13.1789 16.328 14.0739 15.5 14.0739Z" stroke="#FF7A01" stroke-width="1.5" stroke-linecap="round" stroke-linejoin="round"/>
</svg>
