<svg width="24" height="25" viewBox="0 0 24 25" fill="none" xmlns="http://www.w3.org/2000/svg">
<path d="M17 2.07385H7C4.23858 2.07385 2 4.31243 2 7.07385V17.0739C2 19.8353 4.23858 22.0739 7 22.0739H17C19.7614 22.0739 22 19.8353 22 17.0739V7.07385C22 4.31243 19.7614 2.07385 17 2.07385Z" stroke="#FF7A01" stroke-width="2" stroke-linecap="round" stroke-linejoin="round"/>
<path d="M16 11.4438C16.1234 12.2761 15.9813 13.1261 15.5938 13.8729C15.2063 14.6197 14.5931 15.2253 13.8416 15.6035C13.0901 15.9818 12.2384 16.1134 11.4078 15.9798C10.5771 15.8461 9.80976 15.4539 9.21484 14.859C8.61991 14.2641 8.22773 13.4967 8.09406 12.6661C7.9604 11.8354 8.09206 10.9837 8.47032 10.2322C8.84858 9.4807 9.45418 8.86759 10.201 8.48009C10.9478 8.09259 11.7978 7.95044 12.63 8.07385C13.4789 8.19973 14.2648 8.59531 14.8717 9.20216C15.4785 9.809 15.8741 10.5949 16 11.4438Z" stroke="#FF7A01" stroke-width="2" stroke-linecap="round" stroke-linejoin="round"/>
<path d="M17.5 6.57385H17.51" stroke="#FF7A01" stroke-width="2" stroke-linecap="round" stroke-linejoin="round"/>
</svg>
