<svg width="24" height="25" viewBox="0 0 24 25" fill="none" xmlns="http://www.w3.org/2000/svg">
<path d="M16 8.07385C17.5913 8.07385 19.1174 8.70599 20.2426 9.83121C21.3679 10.9564 22 12.4826 22 14.0739V21.0739H18V14.0739C18 13.5434 17.7893 13.0347 17.4142 12.6596C17.0391 12.2846 16.5304 12.0739 16 12.0739C15.4696 12.0739 14.9609 12.2846 14.5858 12.6596C14.2107 13.0347 14 13.5434 14 14.0739V21.0739H10V14.0739C10 12.4826 10.6321 10.9564 11.7574 9.83121C12.8826 8.70599 14.4087 8.07385 16 8.07385V8.07385Z" stroke="#FF7A01" stroke-width="2" stroke-linecap="round" stroke-linejoin="round"/>
<path d="M6 9.07385H2V21.0739H6V9.07385Z" stroke="#FF7A01" stroke-width="2" stroke-linecap="round" stroke-linejoin="round"/>
<path d="M4 6.07385C5.10457 6.07385 6 5.17842 6 4.07385C6 2.96928 5.10457 2.07385 4 2.07385C2.89543 2.07385 2 2.96928 2 4.07385C2 5.17842 2.89543 6.07385 4 6.07385Z" stroke="#FF7A01" stroke-width="2" stroke-linecap="round" stroke-linejoin="round"/>
</svg>
