<svg width="118" height="135" viewBox="0 0 118 135" fill="none" xmlns="http://www.w3.org/2000/svg">
<g clip-path="url(#clip0_304_4700)">
<rect width="116.039" height="133.148" transform="translate(0.980301 0.926086)" fill="#FF7A01"/>
<path opacity="0.5" d="M99.5769 124.836C99.5769 127.673 81.0859 129.973 58.2762 129.973C35.4669 129.973 16.9758 127.673 16.9758 124.836C16.9758 121.998 35.4669 119.698 58.2762 119.698C81.0859 119.698 99.5769 121.998 99.5769 124.836Z" fill="black" fill-opacity="0.5"/>
<path d="M22.4594 52.0539C21.9173 57.6596 21.4334 63.6054 23.9332 68.6536C25.9389 72.7044 29.6683 75.6759 33.692 77.742C40.02 80.9913 47.1973 82.2741 54.3042 82.6207C61.4111 82.967 68.5271 82.4189 75.6393 82.2151C81.1609 82.0571 87.0853 81.9847 91.5863 78.7857C94.9736 76.3782 97.0612 72.4498 97.9147 68.3855C98.7682 64.3213 98.494 60.1023 97.9069 55.9913C96.7793 48.0965 94.5073 40.3654 91.1839 33.1147C89.1061 28.5822 86.5273 24.1263 82.6368 21.0046C78.1821 17.4298 72.4044 15.9265 66.7299 15.2544C59.2014 14.3622 51.4152 14.7976 44.3013 17.4155C37.1878 20.0333 30.7886 24.9612 27.2046 31.6343C23.8746 37.8351 23.1359 45.0501 22.4594 52.0539Z" fill="#2E2227"/>
<path d="M92.9699 62.2552C92.3987 60.0777 91.8218 57.8762 91.7755 55.6259C91.7292 53.3621 92.2221 51.1241 92.3758 48.8652C93.0699 38.675 85.9601 28.4779 76.1514 25.5944L79.0163 28.112C75.788 25.8236 71.0588 26.2047 66.9831 26.8698C64.7103 27.2406 62.3576 27.681 60.1917 28.4652C58.0258 27.681 55.6731 27.2406 53.4007 26.8698C49.3251 26.2047 44.5955 25.8236 41.3671 28.112L44.2324 25.5944C34.4233 28.4779 27.3139 38.675 28.0076 48.8652C28.1617 51.1241 28.6542 53.3621 28.6079 55.6259C28.562 57.8762 27.9847 60.0777 27.4135 62.2552C24.8133 72.1674 22.2381 82.3609 23.371 92.5457C24.504 102.73 30.1518 113.056 39.6856 116.839C46.1811 119.417 53.583 118.647 60.1917 116.313C66.8004 118.647 74.2023 119.417 80.6983 116.839C90.2316 113.056 95.8799 102.73 97.0124 92.5457C98.1453 82.3609 95.5701 72.1674 92.9699 62.2552Z" fill="#F2591D"/>
<path d="M60.1917 115.878C60.2409 115.878 60.2901 115.886 60.3372 115.903C64.3043 117.304 68.173 118.015 71.8352 118.015C74.9685 118.015 77.8961 117.483 80.5373 116.435C89.0405 113.061 95.3374 103.665 96.5797 92.4979C97.7331 82.1284 94.9785 71.6288 92.5487 62.3653C91.9779 60.1895 91.3875 57.9388 91.34 55.6349C91.3109 54.2138 91.4908 52.7952 91.6641 51.4229C91.7714 50.574 91.8825 49.6961 91.9411 48.8357C92.5696 39.6082 86.637 30.3386 78.1436 26.7654L79.3039 27.7854C79.4781 27.9385 79.5018 28.2004 79.3576 28.3822C79.2142 28.5635 78.9532 28.6003 78.7643 28.4669C77.1762 27.3413 75.0722 26.7941 72.3323 26.7941C70.3758 26.7941 68.3824 27.0822 67.0532 27.2991C64.4714 27.7203 62.342 28.1497 60.34 28.8741C60.2442 28.9089 60.1393 28.9089 60.0434 28.8741C58.0418 28.1497 55.912 27.7203 53.3303 27.2991C52.0011 27.0822 50.0077 26.7941 48.0512 26.7941C45.3113 26.7941 43.2073 27.3413 41.6191 28.4669C41.4302 28.6003 41.1692 28.5635 41.0258 28.3822C40.882 28.2004 40.9054 27.9385 41.0795 27.7854L42.2399 26.7654C33.7464 30.3386 27.8138 39.6082 28.4424 48.8357C28.501 49.6961 28.612 50.574 28.7194 51.4229C28.8927 52.7952 29.0725 54.2138 29.0434 55.6345C28.9963 57.938 28.4059 60.1891 27.8347 62.3653C25.405 71.6288 22.6507 82.1284 23.8037 92.4979C25.046 103.665 31.3429 113.061 39.8462 116.435C42.4878 117.483 45.4153 118.015 48.5482 118.015C52.2108 118.015 56.0792 117.304 60.0467 115.903C60.0934 115.886 60.1426 115.878 60.1917 115.878ZM71.8356 118.885C71.8352 118.885 71.8356 118.885 71.8352 118.885C68.1185 118.885 64.2022 118.175 60.1917 116.775C56.1816 118.175 52.2649 118.885 48.5482 118.885C45.3047 118.885 42.2686 118.333 39.5245 117.244C30.7258 113.752 24.2151 104.076 22.9379 92.5936C21.7669 82.0638 24.5429 71.4815 26.9923 62.1447C27.5504 60.0172 28.1277 57.8172 28.1723 55.6169C28.2002 54.2601 28.0248 52.873 27.8552 51.5317C27.7462 50.6706 27.6335 49.78 27.5733 48.8947C26.8673 38.5285 34.1308 28.1104 44.1091 25.177C44.3058 25.1197 44.5152 25.2056 44.6135 25.3841C44.7122 25.5629 44.6733 25.786 44.5201 25.9211L43.937 26.4331C45.1367 26.0917 46.5016 25.9239 48.0512 25.9239C50.0712 25.9239 52.1117 26.2186 53.4708 26.44C55.6948 26.8035 58.0451 27.2443 60.1917 28.0031C62.3387 27.2439 64.6886 26.8035 66.9126 26.44C68.2717 26.2186 70.3122 25.9239 72.3323 25.9239C73.8819 25.9239 75.2467 26.0917 76.4464 26.4331L75.8638 25.9211C75.7101 25.786 75.6712 25.5629 75.7699 25.3841C75.8687 25.2056 76.0777 25.1197 76.2743 25.177C86.2531 28.1104 93.5165 38.5285 92.8105 48.8947C92.7503 49.78 92.6376 50.6706 92.5286 51.5317C92.3586 52.873 92.1832 54.2601 92.2111 55.6169C92.2562 57.8181 92.8335 60.0176 93.3911 62.1447C95.8405 71.4815 98.6165 82.0638 97.4455 92.5936C96.1683 104.076 89.6576 113.752 80.8593 117.244C78.1149 118.333 75.0787 118.885 71.8356 118.885Z" fill="#292625"/>
<path d="M94.3662 84.9186C93.8815 83.6138 92.7166 82.724 91.3829 82.6556C91.3833 82.6773 92.4663 82.3232 92.5912 82.2561C93.0498 82.011 93.4472 81.6516 93.7549 81.2182C94.3121 80.434 94.5244 79.4369 94.4088 78.4722C94.1859 76.6112 92.6232 75.1615 90.8253 75.2568C90.8241 75.2478 90.8232 75.2388 90.8216 75.2294C92.7166 74.8217 93.8028 72.8105 93.3386 70.8692C93.1292 69.9945 92.6687 69.2238 91.9623 68.6995C91.5591 68.3995 91.0916 68.2059 90.6032 68.129C90.4504 68.1048 89.1605 68.1621 89.1757 68.2051C90.9228 67.3562 91.5669 65.1293 90.6794 63.353C89.7964 61.584 87.7797 60.7793 86.0645 61.7829C86.0748 61.7989 86.8074 60.8984 86.8787 60.7715C87.1155 60.3512 87.2552 59.8842 87.304 59.3996C87.4027 58.4218 87.0762 57.419 86.4694 56.6774C85.2324 55.165 83.1005 54.8564 81.6426 56.2243C81.6472 56.2292 82.1503 55.2653 82.1946 55.1323C82.356 54.6477 82.4035 54.1349 82.3486 53.6253C82.2437 52.6553 81.7291 51.7724 80.9998 51.179C79.4973 49.9413 77.3076 50.152 76.1673 51.808C76.1804 51.8166 76.4759 50.6804 76.489 50.5327C76.5357 50.0067 76.4591 49.4767 76.2767 48.9847C75.9563 48.1195 75.2991 47.4257 74.5058 47.0299C72.7849 46.1602 70.6912 46.8613 69.9155 48.7322C69.9196 48.7338 69.9901 47.6418 69.977 47.501C69.9295 46.9935 69.7693 46.5118 69.5189 46.0763C69.0645 45.2863 68.3057 44.7269 67.4645 44.4846C65.567 43.9373 63.5658 45.0776 63.1827 47.1536C63.1958 47.1552 63.0082 45.9961 62.9607 45.8557C62.8058 45.3985 62.5571 44.988 62.2334 44.6429C61.579 43.9459 60.6469 43.5448 59.7127 43.5665C58.7641 43.5882 57.8672 43.9353 57.1969 44.6548C56.8744 45.0007 56.6282 45.4177 56.4757 45.8749C56.4286 46.0157 56.2467 47.174 56.2594 47.1728C55.8771 45.1582 54.0095 44.0667 52.1526 44.4735C51.2913 44.6626 50.5042 45.2168 50.0109 45.9801C49.738 46.4021 49.5553 46.8777 49.4864 47.3836C49.4651 47.5387 49.513 48.7956 49.5348 48.7874C48.7477 46.9153 46.6973 46.2666 44.9695 47.0893C44.1242 47.4916 43.4502 48.2586 43.14 49.1767C42.9925 49.6126 42.9298 50.0726 42.9626 50.5347C42.9736 50.6907 43.2768 51.9095 43.2977 51.896C42.1464 50.2417 40.0084 50.0722 38.4907 51.2645C37.747 51.849 37.2447 52.7498 37.1291 53.717C37.0742 54.177 37.1074 54.6412 37.2344 55.0861C37.2771 55.2355 37.8257 56.359 37.8437 56.3405C36.3777 54.9796 34.2532 55.3034 33.0162 56.8165C31.7747 58.3358 31.9537 60.6659 33.464 61.8979C33.4689 61.8901 32.4749 61.5439 32.3438 61.5218C31.8533 61.4407 31.3445 61.4776 30.8724 61.6409C29.9677 61.954 29.2769 62.6379 28.8389 63.5159C27.9518 65.2938 28.6283 67.5253 30.3709 68.3619C30.3861 68.3193 29.0938 68.2677 28.9405 68.2927C28.4525 68.3717 27.9858 68.5678 27.5843 68.8706C26.8812 69.4003 26.428 70.1734 26.2186 71.0481C25.9773 72.057 26.1428 73.1584 26.7165 74.0126C26.9664 74.3875 27.2889 74.7071 27.6601 74.9466C27.774 75.0202 28.7537 75.4385 28.7553 75.4263C27.066 75.3399 25.5569 76.6243 25.2246 78.3564C24.8206 80.4614 26.14 82.5799 28.2177 82.7964C28.2182 82.7743 27.1229 83.0723 26.9955 83.1324C26.5722 83.3318 26.1879 83.6252 25.8769 83.9874C25.2545 84.7127 24.9652 85.6934 25.0132 86.6597C25.0595 87.5937 25.4016 88.4717 26.0343 89.1384C26.3616 89.4838 26.7652 89.7462 27.2012 89.912C27.3421 89.966 28.6254 90.1866 28.6181 90.1338C26.6722 90.5668 25.6643 92.5793 26.115 94.5541C26.3219 95.4611 26.8996 96.2854 27.6544 96.7672C28.085 97.0418 28.5627 97.21 29.0667 97.2412C29.2064 97.2502 30.4688 97.0934 30.4455 97.0369C28.5873 97.993 28.176 100.312 29.2376 102.088C29.7076 102.873 30.4988 103.48 31.3666 103.666C31.839 103.768 32.3274 103.763 32.7937 103.631C32.933 103.592 34.1528 102.974 34.0954 102.909C32.6786 104.435 32.9887 106.83 34.5875 108.066C36.1687 109.288 38.3731 108.985 39.4204 107.171C39.3954 107.157 39.1455 108.274 39.136 108.407C39.0992 108.933 39.1791 109.472 39.3843 109.955C39.7654 110.851 40.4808 111.547 41.3548 111.882C43.149 112.611 45.1858 111.731 45.8184 109.783C45.807 109.78 45.8115 110.888 45.8336 111.025C45.9151 111.533 46.1077 112.012 46.3835 112.437C46.8752 113.194 47.659 113.68 48.4981 113.887C50.3903 114.353 52.3275 113.108 52.6938 111.082C52.6922 111.082 52.8536 112.157 52.8967 112.292C53.0499 112.776 53.3048 113.219 53.6326 113.595C54.2484 114.301 55.1306 114.683 56.0316 114.739C57.8881 114.871 59.5873 113.434 59.7233 111.455C59.7303 111.455 59.9749 112.435 60.0277 112.559C60.2125 112.997 60.485 113.391 60.8218 113.712C61.5434 114.401 62.5108 114.733 63.4786 114.653C64.3398 114.582 65.1827 114.227 65.7891 113.567C66.1205 113.206 66.3824 112.772 66.5467 112.3C66.5983 112.153 66.8007 110.923 66.7819 110.926C67.1658 112.845 69.0022 114.097 70.8325 113.701C71.6795 113.518 72.4858 113.061 73.0119 112.326C73.3057 111.916 73.5147 111.437 73.6159 110.935C73.6462 110.784 73.6806 109.519 73.6532 109.527C74.3059 111.458 76.3382 112.324 78.1246 111.591C78.9572 111.281 79.6489 110.611 80.0348 109.778C80.252 109.31 80.3602 108.8 80.3491 108.279C80.3462 108.131 80.1037 106.872 80.066 106.894C81.101 108.686 83.3062 109.025 84.8845 107.811C86.4829 106.583 86.8344 104.222 85.4385 102.669C85.409 102.702 86.3837 103.284 86.4997 103.329C86.9733 103.515 87.4835 103.558 87.9825 103.488C88.9335 103.356 89.7694 102.731 90.3045 101.909C91.4145 100.161 90.9781 97.8088 89.1495 96.8446C89.1355 96.8773 90.218 97.066 90.343 97.0664C90.8556 97.0709 91.3559 96.9342 91.8058 96.6776C92.6351 96.2048 93.2624 95.3535 93.4923 94.3876C93.9618 92.414 92.9379 90.3929 90.9974 89.9611C90.9863 90.0376 92.4093 89.7454 92.5605 89.6791C93.126 89.4306 93.6041 89.0176 93.9573 88.4925C94.6445 87.4697 94.7965 86.0838 94.3662 84.9186C94.5383 85.3848 94.1929 84.452 94.3662 84.9186Z" fill="#F7A80E"/>
<path d="M88.7594 78.2094C88.3534 77.1161 87.3774 76.3708 86.26 76.3135C86.2604 76.3315 87.168 76.0348 87.2725 75.9791C87.6568 75.7732 87.9895 75.4724 88.2476 75.1094C88.7139 74.4524 88.8922 73.6171 88.795 72.8087C88.6082 71.2497 87.2991 70.0354 85.7929 70.1152C85.7921 70.1074 85.7913 70.1 85.79 70.0922C87.3774 69.7505 88.2874 68.0658 87.8985 66.4393C87.7232 65.7063 87.3372 65.0612 86.7455 64.6217C86.4079 64.3703 86.0162 64.2083 85.6069 64.1436C85.4786 64.1235 84.3982 64.1714 84.4109 64.2074C85.8744 63.4965 86.4141 61.6305 85.6708 60.1424C84.9308 58.6607 83.2415 57.9866 81.8045 58.8273C81.8131 58.8408 82.4269 58.0865 82.4867 57.9801C82.685 57.6277 82.8022 57.2368 82.8432 56.8303C82.9256 56.0113 82.6523 55.1715 82.1438 54.5498C81.1076 53.283 79.3215 53.0243 78.1001 54.1704C78.1042 54.1745 78.5254 53.3669 78.5627 53.2556C78.6975 52.8496 78.7376 52.4198 78.6913 51.9929C78.6036 51.1805 78.1726 50.4409 77.5617 49.9436C76.3026 48.9069 74.4682 49.0833 73.5131 50.4708C73.5241 50.4777 73.7716 49.5261 73.7827 49.4025C73.8216 48.9613 73.7573 48.5176 73.6048 48.1055C73.3361 47.3806 72.7858 46.7994 72.1212 46.4679C70.6793 45.7393 68.9252 46.3263 68.2758 47.8939C68.2791 47.8951 68.3381 46.9803 68.327 46.8624C68.2873 46.4372 68.1533 46.0336 67.9431 45.6689C67.5629 45.0071 66.9269 44.5385 66.2222 44.335C64.6328 43.8766 62.9562 44.8323 62.6353 46.5714C62.6464 46.5727 62.4891 45.6018 62.4493 45.4839C62.3194 45.1013 62.1109 44.757 61.84 44.4681C61.2918 43.884 60.5109 43.548 59.7278 43.5664C58.9334 43.5844 58.1823 43.875 57.6202 44.4779C57.3501 44.7677 57.144 45.1172 57.0162 45.4999C56.9769 45.6178 56.8244 46.5886 56.8351 46.5874C56.5151 44.8995 54.9503 43.9851 53.3945 44.326C52.673 44.4844 52.0133 44.9486 51.6003 45.5883C51.3717 45.9419 51.2188 46.3402 51.161 46.7642C51.1434 46.8939 51.1832 47.9466 51.2012 47.9401C50.5423 46.3717 48.8243 45.8286 47.3771 46.5174C46.6687 46.8547 46.1041 47.4972 45.8443 48.2663C45.7205 48.6314 45.6681 49.0169 45.6956 49.4041C45.7046 49.5347 45.9586 50.5555 45.9762 50.5444C45.0117 49.1586 43.2207 49.0165 41.9489 50.0152C41.3261 50.5047 40.9053 51.2599 40.8086 52.0699C40.7623 52.4554 40.7902 52.8442 40.8967 53.2167C40.9323 53.3419 41.3921 54.2833 41.4072 54.2678C40.1793 53.1275 38.3994 53.3988 37.3631 54.6668C36.3228 55.9393 36.4728 57.8916 37.738 58.9235C37.7421 58.9169 36.9095 58.6267 36.7993 58.6083C36.3888 58.5404 35.9622 58.5715 35.5672 58.7082C34.8088 58.9706 34.2303 59.5436 33.8631 60.2791C33.1199 61.7685 33.687 63.6381 35.1469 64.3388C35.1596 64.3032 34.077 64.2602 33.9488 64.2807C33.5395 64.347 33.1486 64.5111 32.8122 64.7649C32.2234 65.209 31.8436 65.8565 31.6682 66.5891C31.4658 67.4343 31.6047 68.3573 32.0853 69.0727C32.2947 69.387 32.5647 69.6543 32.8757 69.8553C32.9712 69.9167 33.7919 70.267 33.7931 70.2572C32.3783 70.1848 31.1138 71.2608 30.8356 72.7117C30.4972 74.4754 31.6022 76.2501 33.3428 76.4314C33.3432 76.413 32.4258 76.6626 32.3193 76.713C31.9644 76.88 31.6424 77.126 31.3818 77.4292C30.8606 78.037 30.618 78.8585 30.6582 79.6677C30.6971 80.4506 30.9839 81.1857 31.5137 81.7444C31.7882 82.0338 32.1259 82.2536 32.4913 82.3927C32.6093 82.4378 33.6845 82.6228 33.6784 82.5786C32.048 82.9412 31.204 84.6275 31.5813 86.2818C31.7546 87.0415 32.2385 87.732 32.8708 88.1355C33.2317 88.366 33.6321 88.5063 34.0541 88.5329C34.1713 88.5399 35.2288 88.4089 35.2091 88.3615C33.6525 89.1628 33.3079 91.1053 34.1975 92.5931C34.5912 93.2504 35.2538 93.7596 35.9811 93.9155C36.3765 94.0003 36.7858 93.9966 37.1767 93.8861C37.2931 93.8533 38.3149 93.3356 38.267 93.2816C37.08 94.5598 37.3402 96.5661 38.6796 97.6012C40.0039 98.6253 41.8506 98.3707 42.7282 96.8514C42.7073 96.8395 42.4976 97.776 42.4898 97.8869C42.459 98.3277 42.5258 98.7796 42.6979 99.184C43.0171 99.9342 43.6161 100.517 44.3487 100.798C45.8521 101.409 47.5582 100.671 48.088 99.0399C48.0786 99.0374 48.0823 99.9653 48.1007 100.08C48.1691 100.506 48.3302 100.907 48.5617 101.263C48.9735 101.897 49.6299 102.305 50.333 102.478C51.9182 102.868 53.5412 101.826 53.8477 100.128C53.8465 100.128 53.9821 101.028 54.0177 101.141C54.1464 101.548 54.3599 101.918 54.6344 102.233C55.1503 102.825 55.8894 103.144 56.6442 103.192C58.1995 103.302 59.623 102.099 59.7373 100.44C59.7426 100.44 59.9479 101.262 59.9921 101.366C60.147 101.732 60.3752 102.062 60.6575 102.331C61.2619 102.909 62.0724 103.186 62.8828 103.12C63.6044 103.06 64.3108 102.763 64.8184 102.21C65.0966 101.908 65.3154 101.544 65.4531 101.149C65.4965 101.025 65.6662 99.9952 65.6506 99.9972C65.9718 101.605 67.5104 102.654 69.0441 102.322C69.7533 102.169 70.429 101.785 70.8698 101.17C71.1157 100.827 71.2911 100.426 71.3755 100.005C71.4013 99.8781 71.43 98.8185 71.407 98.825C71.9536 100.443 73.6561 101.169 75.1528 100.554C75.8506 100.294 76.4296 99.7336 76.7533 99.0358C76.9352 98.6433 77.0257 98.2164 77.0167 97.7793C77.0139 97.6557 76.811 96.6013 76.7795 96.6189C77.6461 98.1206 79.494 98.4043 80.8162 97.388C82.1548 96.359 82.4499 94.3813 81.28 93.0798C81.2555 93.1072 82.0721 93.5947 82.1692 93.6331C82.5658 93.7883 82.9932 93.8243 83.4115 93.7662C84.208 93.6556 84.9083 93.1313 85.3565 92.4433C86.2866 90.9789 85.9212 89.0085 84.3891 88.2002C84.3773 88.228 85.2844 88.386 85.3889 88.3864C85.8183 88.3897 86.2375 88.2755 86.6144 88.0606C87.3089 87.6644 87.8346 86.951 88.0272 86.1419C88.4205 84.4887 87.563 82.7955 85.9371 82.4337C85.9281 82.4975 87.12 82.2532 87.2467 82.1975C87.7203 81.9892 88.121 81.6433 88.4169 81.2033C88.9925 80.3467 89.12 79.1855 88.7594 78.2094C88.9036 78.5998 88.6144 77.8185 88.7594 78.2094Z" fill="#F3D055"/>
<path d="M83.1525 71.5002C82.8252 70.6186 82.0381 70.0178 81.1371 69.9715C81.1375 69.9859 81.8693 69.7468 81.9537 69.7018C82.2634 69.536 82.5318 69.2933 82.74 69.0007C83.1161 68.4706 83.2595 67.7974 83.1816 67.1454C83.0309 65.8884 81.975 64.909 80.7605 64.9736C80.7601 64.9675 80.7593 64.9614 80.758 64.9552C82.0381 64.6798 82.7719 63.3209 82.4585 62.0095C82.3171 61.4185 82.0057 60.8983 81.5288 60.5439C81.2563 60.3413 80.9404 60.2103 80.6105 60.1587C80.5073 60.1424 79.6362 60.1808 79.6464 60.2099C80.8265 59.6365 81.2616 58.1319 80.6622 56.9323C80.0656 55.7371 78.7032 55.1936 77.5445 55.8714C77.5514 55.8824 78.0464 55.2742 78.0947 55.1883C78.2545 54.9047 78.3488 54.5891 78.382 54.2616C78.4488 53.601 78.2279 52.9237 77.8182 52.4227C76.9827 51.4011 75.5425 51.1928 74.5575 52.117C74.5608 52.1198 74.9004 51.469 74.9303 51.379C75.0393 51.0516 75.0717 50.7053 75.0344 50.3611C74.9635 49.7058 74.6161 49.1095 74.1236 48.7084C73.1082 47.8722 71.6291 48.0146 70.8588 49.1336C70.8678 49.1389 71.0673 48.3719 71.0759 48.2721C71.1075 47.9164 71.0559 47.5587 70.9325 47.2263C70.7162 46.6418 70.2724 46.1732 69.7365 45.9059C68.5741 45.3182 67.1597 45.7917 66.6356 47.0556C66.6385 47.0569 66.686 46.3189 66.6774 46.224C66.645 45.8814 66.5369 45.5556 66.3676 45.2613C66.0608 44.728 65.5482 44.3502 64.9799 44.1861C63.6982 43.8165 62.3465 44.5868 62.0875 45.9894C62.0965 45.9903 61.9699 45.2073 61.9376 45.1123C61.8331 44.8037 61.6651 44.5266 61.4463 44.2933C61.0042 43.8222 60.3744 43.5517 59.7434 43.566C59.1026 43.5808 58.497 43.8153 58.0438 44.3015C57.8263 44.5352 57.6599 44.8164 57.5571 45.1254C57.5251 45.2204 57.4022 46.0034 57.4108 46.0021C57.1526 44.6412 55.8911 43.9041 54.6364 44.1787C54.0546 44.3064 53.5228 44.6809 53.1897 45.1966C53.0053 45.4815 52.8819 45.8028 52.8356 46.1446C52.8213 46.2493 52.8533 47.0982 52.868 47.0929C52.3366 45.8286 50.9517 45.3902 49.7843 45.9456C49.2132 46.2174 48.7579 46.736 48.5482 47.3557C48.4486 47.6503 48.4064 47.961 48.4285 48.2733C48.4359 48.3785 48.6407 49.202 48.6547 49.193C47.8774 48.0752 46.4331 47.961 45.4075 48.7665C44.9052 49.161 44.5659 49.7697 44.4881 50.4229C44.4508 50.734 44.4733 51.0475 44.5589 51.3475C44.588 51.4486 44.9584 52.2078 44.9707 52.1951C43.9804 51.2758 42.5451 51.4948 41.7096 52.5168C40.8709 53.5429 40.9918 55.1171 42.012 55.9492C42.0157 55.9442 41.3441 55.7101 41.2552 55.6954C40.9242 55.6405 40.5804 55.6655 40.2616 55.7756C39.6503 55.9872 39.1836 56.4493 38.8878 57.0424C38.2883 58.2432 38.7452 59.7507 39.9228 60.3159C39.9326 60.2868 39.0599 60.2525 38.9566 60.2692C38.6268 60.3224 38.3113 60.4551 38.04 60.6593C37.5651 61.0174 37.259 61.5397 37.1177 62.1303C36.9546 62.8118 37.0665 63.5559 37.4541 64.133C37.6229 64.3863 37.8405 64.602 38.0912 64.7641C38.1683 64.8136 38.8304 65.096 38.8312 65.0883C37.6901 65.0297 36.6707 65.8974 36.4461 67.0672C36.1732 68.4895 37.0644 69.9204 38.4682 70.0665C38.4682 70.0517 37.7286 70.2531 37.6426 70.2936C37.3566 70.4283 37.0968 70.6264 36.887 70.8712C36.4666 71.3611 36.2712 72.0237 36.3035 72.6761C36.3347 73.3073 36.5658 73.9003 36.9931 74.3505C37.2144 74.5842 37.4869 74.7611 37.7815 74.8732C37.8765 74.9096 38.7435 75.0586 38.7386 75.0234C37.4238 75.3157 36.7432 76.6753 37.0476 78.0092C37.1873 78.6219 37.5774 79.1786 38.0875 79.504C38.3785 79.6898 38.7009 79.8032 39.0418 79.8244C39.1361 79.8302 39.9887 79.7246 39.9727 79.6861C38.7177 80.3324 38.4399 81.8987 39.157 83.0984C39.4745 83.6284 40.0088 84.0389 40.5951 84.1646C40.9143 84.2329 41.2442 84.2301 41.5593 84.1408C41.6531 84.1146 42.4771 83.6972 42.4385 83.6534C41.4814 84.684 41.6912 86.3019 42.7713 87.1368C43.839 87.9624 45.3284 87.7573 46.0356 86.5323C46.0188 86.5225 45.85 87.2772 45.8435 87.3669C45.8189 87.7225 45.8726 88.0868 46.0115 88.413C46.2688 89.018 46.7519 89.4878 47.3427 89.7146C48.5547 90.2074 49.9306 89.6123 50.3576 88.2968C50.3498 88.2947 50.353 89.0429 50.3678 89.1354C50.4231 89.4784 50.553 89.8026 50.7394 90.0895C51.0717 90.6007 51.6011 90.9294 52.1678 91.0689C53.4462 91.3837 54.7549 90.543 55.0019 89.1739C55.0011 89.1739 55.1101 89.9 55.1392 89.9913C55.2429 90.3187 55.4149 90.6175 55.6362 90.8716C56.0525 91.3489 56.6483 91.6063 57.2571 91.6444C58.5109 91.7336 59.6586 90.7632 59.7508 89.426C59.7553 89.426 59.9208 90.0883 59.9561 90.1722C60.0814 90.4677 60.2654 90.7333 60.4928 90.9506C60.9804 91.416 61.6339 91.6399 62.2875 91.5863C62.8693 91.5388 63.4384 91.2985 63.8482 90.8532C64.0723 90.6093 64.2489 90.3154 64.3599 89.997C64.3948 89.8971 64.5316 89.0671 64.5189 89.0687C64.7783 90.3645 66.019 91.211 67.2551 90.9437C67.8271 90.8197 68.3717 90.5106 68.7273 90.0146C68.9261 89.7375 69.067 89.4142 69.1354 89.0748C69.1559 88.9725 69.1793 88.1179 69.1608 88.1237C69.6017 89.4281 70.9743 90.013 72.181 89.5177C72.7436 89.3082 73.2107 88.8559 73.4717 88.2931C73.6184 87.9767 73.6913 87.6325 73.6839 87.2801C73.6819 87.1806 73.518 86.3301 73.4926 86.3449C74.1916 87.5552 75.6814 87.7843 76.7475 86.9645C77.8272 86.1349 78.0648 84.5403 77.122 83.4909C77.1015 83.513 77.7604 83.9063 77.8387 83.937C78.1587 84.0622 78.5033 84.0913 78.8405 84.0442C79.4825 83.9554 80.0471 83.5326 80.4089 82.9776C81.1584 81.7968 80.8638 80.2079 79.6288 79.5563C79.6194 79.5784 80.3504 79.7061 80.4348 79.7061C80.781 79.709 81.119 79.6169 81.423 79.4434C81.9832 79.1241 82.4072 78.5491 82.5621 77.8967C82.8793 76.5636 82.1876 75.1982 80.8769 74.9064C80.8695 74.9579 81.8307 74.7611 81.9328 74.716C82.3146 74.5482 82.6379 74.2691 82.8764 73.9143C83.3406 73.2238 83.4431 72.2873 83.1525 71.5002C83.2689 71.815 83.0358 71.1851 83.1525 71.5002Z" fill="#F8E298"/>
<path d="M32.87 100.77C32.1837 98.1403 31.4974 95.5101 30.8111 92.8804C32.5332 95.901 35.5325 98.1673 38.9108 99.001C38.3974 96.8424 37.8844 94.6842 37.371 92.5256C38.8092 94.1713 40.6227 95.488 42.6337 96.3467C43.1803 96.58 43.844 96.7703 44.3386 96.4404C44.838 96.1073 44.9122 95.4123 44.9016 94.8127C44.7991 88.9733 41.4458 83.7479 38.145 78.9276C34.8441 74.1074 31.3605 69.0183 30.9369 63.1936C30.7922 61.2024 30.7734 58.7499 29.0013 57.8266C27.7676 57.1832 26.1794 57.703 25.203 58.693C24.2262 59.6835 23.732 61.0407 23.3149 62.3668C20.616 70.9415 19.9813 80.1567 21.4801 89.02C21.964 91.8834 22.7532 94.8675 24.8191 96.9107C24.7228 94.0666 24.6261 91.2228 24.5298 88.379C25.859 93.2688 28.8386 97.6954 32.87 100.77Z" fill="#F2591D"/>
<path d="M24.5301 87.9439C24.7239 87.9439 24.8977 88.0729 24.9501 88.2648C26.1437 92.6561 28.6673 96.6349 32.114 99.5977L30.3894 92.9901C30.3345 92.7789 30.4447 92.5595 30.6471 92.4773C30.8483 92.3954 31.081 92.4752 31.1896 92.6651C32.7241 95.357 35.353 97.4543 38.3158 98.3829L36.9472 92.6262C36.9009 92.4314 36.9935 92.2305 37.1718 92.1388C37.3504 92.0475 37.5676 92.0888 37.6991 92.2395C39.0918 93.8333 40.8574 95.1152 42.8049 95.9464C43.4227 96.21 43.8341 96.2534 44.0968 96.0786C44.3569 95.9051 44.4778 95.4933 44.4659 94.8201C44.368 89.2361 41.2499 84.2325 37.7856 79.1732C34.4175 74.2555 30.9348 69.1697 30.5025 63.2251L30.4701 62.7495C30.3513 60.9691 30.2169 58.9509 28.8 58.2121C28.5017 58.0566 28.167 57.978 27.8048 57.978C27.0119 57.978 26.1339 58.3689 25.5131 58.9983C24.5896 59.9348 24.1261 61.2404 23.7303 62.4974C21.0519 71.0062 20.4225 80.1522 21.9095 88.9475C22.2954 91.2306 22.8912 93.7575 24.3421 95.6992L24.0942 88.3938C24.0868 88.1727 24.2462 87.9816 24.465 87.9484C24.4867 87.9452 24.5084 87.9439 24.5301 87.9439ZM32.8699 101.205C32.7765 101.205 32.6835 101.175 32.6057 101.116C29.2716 98.5728 26.6595 95.152 25.0644 91.2911L25.2513 96.8117C25.2587 96.8436 25.2628 96.8767 25.2628 96.9107C25.2628 97.151 25.0677 97.3458 24.8272 97.3458C24.8247 97.3454 24.8219 97.3458 24.8194 97.3458C24.7067 97.3458 24.5961 97.302 24.5125 97.2197C22.3032 95.0353 21.5227 91.8854 21.0502 89.0924C19.5408 80.1625 20.18 70.8756 22.899 62.2363C23.3083 60.9376 23.8332 59.4621 24.8924 58.3877C25.6827 57.5863 26.7718 57.1078 27.8048 57.1078C28.3087 57.1078 28.7791 57.2196 29.2028 57.4406C31.0536 58.4057 31.2117 60.782 31.3392 62.6918L31.3711 63.1621C31.7866 68.8725 35.2018 73.8594 38.5042 78.682C42.0464 83.8547 45.2346 88.9798 45.337 94.8049C45.3481 95.4385 45.2817 96.3348 44.5803 96.8027C44.0591 97.1497 43.3969 97.1452 42.4627 96.7466C40.8857 96.0737 39.4212 95.1221 38.1593 93.9581L39.3155 98.8213C39.3401 98.8762 39.3545 98.9367 39.3545 99.001C39.3545 99.2412 39.1594 99.436 38.9189 99.436C38.9165 99.436 38.9132 99.436 38.9107 99.436C38.8759 99.436 38.8406 99.432 38.8062 99.4234C36.122 98.7611 33.6423 97.1972 31.837 95.0877L33.2916 100.66C33.3387 100.84 33.2662 101.029 33.1113 101.133C33.0379 101.181 32.9539 101.205 32.8699 101.205Z" fill="#292625"/>
<path d="M87.5133 100.77C88.1997 98.1403 88.886 95.5101 89.5723 92.8804C87.8501 95.901 84.8513 98.1673 81.473 99.001C81.986 96.8424 82.499 94.6842 83.0124 92.5256C81.5742 94.1713 79.7607 95.488 77.7497 96.3467C77.2031 96.58 76.5393 96.7703 76.0448 96.4404C75.5453 96.1073 75.4716 95.4123 75.4818 94.8127C75.5846 88.9733 78.9375 83.7479 82.2384 78.9276C85.5396 74.1074 89.0228 69.0183 89.4465 63.1936C89.5915 61.2024 89.61 58.7499 91.3821 57.8266C92.6158 57.1832 94.2039 57.703 95.1808 58.693C96.1572 59.6835 96.6513 61.0407 97.0684 62.3668C99.7678 70.9415 100.402 80.1567 98.9032 89.02C98.4193 91.8834 97.6306 94.8675 95.5643 96.9107C95.661 94.0666 95.7573 91.2228 95.8535 88.379C94.5244 93.2688 91.5448 97.6954 87.5133 100.77Z" fill="#F2591D"/>
<path d="M89.5727 92.4453C89.6272 92.4453 89.683 92.4556 89.7366 92.4773C89.939 92.5595 90.0488 92.7789 89.9939 92.9901L88.2694 99.5977C91.7165 96.6349 94.2396 92.6561 95.4332 88.2648C95.4914 88.0516 95.7012 87.9169 95.9183 87.9484C96.1371 87.9816 96.2965 88.1727 96.2892 88.3938L96.0413 95.6992C97.4921 93.7575 98.0879 91.2306 98.4739 88.9475C99.9612 80.1522 99.3315 71.0062 96.653 62.4974C96.2576 61.2404 95.7938 59.9348 94.8702 58.9983C94.2495 58.3689 93.3714 57.978 92.5786 57.978C92.2164 57.978 91.8816 58.0566 91.5833 58.2121C90.1664 58.9509 90.032 60.9691 89.9136 62.7495L89.8809 63.2251C89.4486 69.1697 85.9658 74.2555 82.5982 79.1732C79.1334 84.2325 76.0153 89.2361 75.9174 94.8201C75.9055 95.4933 76.0264 95.9051 76.287 96.0786C76.5492 96.2538 76.961 96.21 77.5789 95.9464C79.5264 95.1152 81.2919 93.8333 82.6842 92.2395C82.8162 92.0888 83.0341 92.0475 83.2116 92.1388C83.3898 92.2305 83.4824 92.4314 83.4361 92.6262L82.0676 98.3829C85.0308 97.4543 87.6593 95.357 89.1937 92.6651C89.2736 92.5256 89.4203 92.4453 89.5727 92.4453ZM87.5134 101.205C87.4294 101.205 87.3454 101.181 87.2721 101.133C87.1172 101.029 87.0451 100.84 87.0918 100.66L88.5463 95.0877C86.741 97.1972 84.2613 98.7611 81.5771 99.4234C81.4296 99.4598 81.2739 99.4168 81.1666 99.31C81.0584 99.2032 81.0141 99.0481 81.049 98.9007L82.2241 93.9581C80.9621 95.1221 79.4977 96.0737 77.921 96.7466C76.9864 97.1452 76.3247 97.1502 75.8035 96.8027C75.1016 96.3348 75.0352 95.4385 75.0463 94.8049C75.1487 88.9798 78.3369 83.8547 81.8791 78.682C85.1816 73.8594 88.5967 68.8725 89.0122 63.1621L89.0446 62.6918C89.1716 60.782 89.3298 58.4057 91.1806 57.4406C91.6042 57.2196 92.075 57.1078 92.5786 57.1078C93.6119 57.1078 94.7006 57.5863 95.491 58.3877C96.5502 59.4621 97.0754 60.9376 97.4844 62.2363C100.203 70.8756 100.843 80.1625 99.3331 89.0924C98.8607 91.8854 98.0801 95.0353 95.8708 97.2197C95.7438 97.345 95.5537 97.3802 95.3898 97.3094C95.2263 97.2377 95.123 97.074 95.1292 96.896L95.3193 91.2911C93.7238 95.152 91.1117 98.5728 87.7777 101.116C87.6998 101.175 87.6064 101.205 87.5134 101.205Z" fill="#292625"/>
<path d="M44.7904 113.91C44.0405 113.375 42.9814 113.739 42.2275 114.268C40.5127 115.471 39.4208 117.413 38.8951 119.439C38.3694 121.466 38.3612 123.589 38.4575 125.68C38.4718 125.992 38.5275 126.366 38.8123 126.497C39.195 126.672 39.5728 126.256 39.7895 125.895C40.938 123.989 42.0861 122.082 43.2346 120.175C43.8484 119.156 44.4634 118.134 44.9645 117.055C45.2054 116.536 45.4222 115.992 45.4431 115.421C45.464 114.85 45.2562 114.242 44.7904 113.91Z" fill="#EDA263"/>
<path d="M43.9247 114.082C43.4957 114.082 42.9684 114.28 42.4779 114.624C40.9931 115.666 39.87 117.415 39.3168 119.548C38.7903 121.579 38.8018 123.686 38.8927 125.66C38.9108 126.052 38.9935 126.101 38.9944 126.101L38.9985 126.103C39.0517 126.103 39.2349 125.973 39.4164 125.671L42.8615 119.951C43.4589 118.959 44.0767 117.934 44.5697 116.872C44.7864 116.405 44.99 115.904 45.0077 115.405C45.022 115.026 44.9052 114.527 44.5377 114.264C44.366 114.142 44.1652 114.082 43.9247 114.082ZM38.9985 126.973C38.998 126.973 38.998 126.973 38.998 126.973C38.8714 126.973 38.7481 126.946 38.6305 126.892C38.0655 126.632 38.0331 125.931 38.0225 125.7C37.9327 123.756 37.9163 121.479 38.4736 119.33C39.0788 116.997 40.3231 115.073 41.9772 113.912C42.3497 113.651 43.0979 113.212 43.9247 113.212C44.3472 113.212 44.7237 113.328 45.0433 113.556C45.5866 113.944 45.9066 114.664 45.8784 115.436C45.8546 116.089 45.6149 116.688 45.3596 117.238C44.8471 118.343 44.2169 119.388 43.6076 120.399L40.1629 126.12C39.9712 126.438 39.5643 126.973 38.9985 126.973Z" fill="#292625"/>
<path d="M43.476 117.528C43.5706 117.046 43.644 116.548 43.5411 116.069C43.3571 116.958 42.7614 117.754 41.9591 118.181C42.1271 118.84 42.1447 119.555 41.8882 120.184C41.6313 120.813 41.0688 121.338 40.396 121.439C40.4906 122.604 40.2558 123.794 39.7256 124.836C40.7033 123.116 41.6805 121.396 42.6577 119.675C42.8384 119.358 43.0191 119.04 43.1547 118.701C43.3055 118.323 43.3981 117.926 43.476 117.528Z" fill="#DC7029"/>
<path d="M47.5423 113.91C48.2925 113.375 49.3513 113.739 50.1056 114.268C51.8204 115.471 52.9123 117.413 53.4376 119.439C53.9633 121.466 53.9719 123.589 53.8752 125.68C53.8609 125.992 53.8056 126.366 53.5208 126.497C53.1381 126.672 52.7603 126.256 52.5432 125.895C51.3951 123.989 50.2466 122.082 49.0981 120.175C48.4843 119.156 47.8693 118.134 47.3682 117.055C47.1277 116.536 46.9105 115.992 46.89 115.421C46.8691 114.85 47.0769 114.242 47.5423 113.91Z" fill="#EDA263"/>
<path d="M48.4085 114.082C48.1675 114.082 47.9672 114.142 47.7955 114.264C47.4276 114.526 47.3112 115.025 47.3251 115.405C47.3431 115.904 47.5464 116.405 47.7635 116.872C48.2552 117.931 48.8735 118.958 49.4713 119.951L52.9164 125.671C53.0971 125.971 53.2798 126.102 53.3339 126.103C53.3413 126.1 53.4224 126.047 53.44 125.66C53.531 123.686 53.5429 121.579 53.016 119.548C52.4624 117.415 51.3401 115.666 49.8552 114.624C49.3648 114.28 48.8375 114.082 48.4085 114.082ZM53.3347 126.103V126.538V126.103ZM53.3347 126.973C52.7685 126.973 52.362 126.438 52.1699 126.12L48.7252 120.399C48.1151 119.387 47.4845 118.339 46.9731 117.238C46.7179 116.688 46.4782 116.09 46.4544 115.436C46.4266 114.664 46.7466 113.943 47.2895 113.556C47.6095 113.328 47.986 113.212 48.4085 113.212C49.2353 113.212 49.9835 113.651 50.3555 113.912C52.0096 115.072 53.254 116.996 53.8592 119.33C54.4164 121.478 54.4001 123.755 54.3103 125.7C54.2984 125.955 54.2673 126.632 53.7027 126.892C53.5851 126.946 53.4613 126.973 53.3347 126.973Z" fill="#292625"/>
<path d="M50.535 117.848C50.4605 118.606 50.5895 119.383 50.905 120.076C51.0165 120.321 51.155 120.561 51.3586 120.738C51.5622 120.915 51.8409 121.022 52.1051 120.969C51.9802 121.671 52.1965 122.387 52.4612 123.049C52.6333 123.479 52.8267 123.901 53.041 124.311C52.9017 124.249 52.8013 124.125 52.7066 124.006C52.2166 123.384 51.7462 122.748 51.2754 122.111C51.0628 121.824 50.8501 121.536 50.6371 121.249C50.5059 121.071 50.3744 120.893 50.2482 120.712C49.3681 119.446 48.7473 118.001 48.4355 116.492C48.3429 116.043 48.2852 115.544 48.524 115.153C49.0112 116.182 49.5517 117.271 50.535 117.848Z" fill="#DC7029"/>
<path d="M48.8072 118.475C48.8072 121.583 47.594 127.357 46.0968 127.357C44.6 127.357 43.3864 121.583 43.3864 118.475C43.3864 115.366 44.6 112.846 46.0968 112.846C47.594 112.846 48.8072 115.366 48.8072 118.475Z" fill="#EDA263"/>
<path d="M46.0967 113.281C45.0207 113.281 43.8218 115.414 43.8218 118.474C43.8218 121.948 45.1613 126.922 46.0967 126.922C47.0321 126.922 48.3716 121.948 48.3716 118.474C48.3716 115.414 47.1727 113.281 46.0967 113.281ZM46.0967 127.792C44.021 127.792 42.9507 121.261 42.9507 118.474C42.9507 115.074 44.3328 112.411 46.0967 112.411C47.861 112.411 49.2427 115.074 49.2427 118.474C49.2427 121.261 48.1724 127.792 46.0967 127.792Z" fill="#292625"/>
<path d="M41.1824 116.684C41.1976 116.885 41.3291 117.057 41.4672 117.203C41.586 117.33 41.7319 117.455 41.9056 117.458C42.1793 117.461 42.3531 117.174 42.4682 116.926C42.6169 116.606 42.7681 116.279 42.807 115.927C42.8464 115.576 42.7546 115.191 42.4866 114.96C42.1244 115.293 41.786 115.652 41.4746 116.033C41.3201 116.222 41.1644 116.441 41.1824 116.684Z" fill="#F3ED99"/>
<path d="M40.7038 117.643C40.5866 117.665 40.5121 117.777 40.4543 117.881C39.9356 118.82 39.7016 119.914 39.7901 120.983C39.7995 121.098 39.8307 121.235 39.9401 121.272C40.0736 121.316 40.1892 121.173 40.2576 121.05C40.528 120.563 40.7981 120.076 41.0685 119.589C41.218 119.32 41.3717 119.034 41.3582 118.727C41.3451 118.42 41.0058 117.585 40.7038 117.643Z" fill="#F3ED99"/>
<path d="M39.4479 124.419C39.6654 123.917 39.7953 123.377 39.8302 122.831C39.8424 122.641 39.842 122.443 39.7675 122.268C39.6929 122.092 39.5282 121.943 39.3372 121.939C39.1762 122.444 39.0852 122.97 39.0672 123.499C39.0557 123.834 39.0824 124.195 39.2934 124.457C39.3106 124.478 39.3323 124.5 39.3598 124.502C39.4028 124.504 39.4307 124.459 39.4479 124.419Z" fill="#F3ED99"/>
<path d="M44.5026 118.491C44.5726 118.727 44.7066 118.977 44.9438 119.043C45.1762 119.108 45.4261 118.962 45.5568 118.759C45.6875 118.557 45.7252 118.31 45.7551 118.071C45.9157 116.791 45.9497 115.495 45.8567 114.208C45.8465 114.07 45.7891 113.89 45.6515 113.9C45.581 113.904 45.5273 113.962 45.4831 114.018C44.8459 114.81 44.5689 115.834 44.4419 116.843C44.3727 117.392 44.3448 117.96 44.5026 118.491Z" fill="#F3ED99"/>
<path d="M45.1023 119.549C45.0043 119.57 44.9105 119.624 44.8573 119.709C44.8257 119.759 44.8093 119.817 44.7954 119.875C44.6135 120.623 44.7626 121.411 44.9773 122.15C45.0306 122.334 45.092 122.524 45.2231 122.664C45.2977 122.743 45.4043 122.805 45.5108 122.785C45.6714 122.755 45.7419 122.568 45.7775 122.409C45.905 121.845 45.9578 121.265 45.9422 120.687C45.9349 120.417 45.9095 120.137 45.7742 119.902C45.6394 119.667 45.367 119.492 45.1023 119.549Z" fill="#F3ED99"/>
<path d="M50.8034 115.945C50.4469 115.544 50.063 115.149 49.5787 114.919C49.5119 114.888 49.4357 114.859 49.3665 114.884C49.3136 115.186 49.4041 115.498 49.5566 115.764C49.709 116.029 49.9204 116.255 50.1298 116.479C50.3047 116.665 50.4793 116.852 50.6543 117.039C50.8083 117.203 51.0021 117.382 51.2242 117.344C51.3631 117.121 51.3492 116.83 51.2504 116.587C51.1517 116.344 50.9779 116.14 50.8034 115.945Z" fill="#F3ED99"/>
<path d="M52.2186 119.243C52.321 118.785 52.0887 118.322 51.8215 117.937C51.7453 117.827 51.6159 117.707 51.4987 117.77C51.2926 118.221 51.3008 118.765 51.52 119.21C51.5704 119.313 51.6343 119.413 51.7285 119.478C51.8228 119.543 51.9535 119.566 52.0535 119.51C52.1473 119.457 52.1948 119.348 52.2186 119.243Z" fill="#F3ED99"/>
<path d="M46.0058 126.281C46.4942 126.272 46.7843 125.743 46.9494 125.284C47.8615 122.747 48.1586 119.992 47.8082 117.319C47.637 116.011 47.244 114.614 46.1828 113.829C46.4844 116.639 46.5987 119.47 46.5258 122.296C46.5122 122.814 46.4926 123.331 46.4647 123.849C46.4201 124.678 46.3496 125.525 46.0058 126.281Z" fill="#DC7029"/>
<path d="M66.3923 113.91C65.6424 113.375 64.5833 113.739 63.8294 114.268C62.1146 115.471 61.0226 117.413 60.497 119.439C59.9717 121.466 59.9631 123.589 60.0598 125.68C60.0741 125.992 60.1294 126.366 60.4142 126.497C60.7969 126.672 61.1747 126.256 61.3918 125.895C62.5399 123.989 63.6884 122.082 64.8365 120.175C65.4507 119.156 66.0657 118.134 66.5664 117.055C66.8073 116.536 67.0245 115.992 67.045 115.421C67.0659 114.85 66.8581 114.242 66.3923 113.91Z" fill="#EDA263"/>
<path d="M65.5264 114.082C65.0974 114.082 64.5701 114.28 64.0797 114.624C62.5948 115.666 61.4725 117.415 60.9185 119.548C60.392 121.579 60.4039 123.686 60.4949 125.66C60.5129 126.052 60.5952 126.101 60.5961 126.101L60.6002 126.103C60.6538 126.103 60.837 125.973 61.0185 125.671L64.4636 119.951C65.0614 118.958 65.6797 117.931 66.1714 116.872C66.3885 116.405 66.5918 115.904 66.6098 115.405C66.6237 115.025 66.5074 114.526 66.1394 114.264C65.9677 114.142 65.7674 114.082 65.5264 114.082ZM60.6002 126.973C60.4736 126.973 60.3498 126.946 60.2322 126.892C59.6676 126.632 59.6365 125.955 59.6246 125.7C59.5348 123.756 59.5185 121.478 60.0753 119.33C60.6809 116.996 61.9253 115.072 63.579 113.912C63.9514 113.651 64.6996 113.212 65.5264 113.212C65.9489 113.212 66.3254 113.328 66.6454 113.556C67.1883 113.943 67.5083 114.664 67.4805 115.436C67.4567 116.09 67.217 116.688 66.9618 117.238C66.4504 118.339 65.8198 119.387 65.2097 120.399L61.765 126.12C61.5729 126.438 61.1664 126.973 60.6002 126.973Z" fill="#292625"/>
<path d="M65.0783 117.528C65.1725 117.046 65.2459 116.548 65.143 116.069C64.959 116.958 64.3633 117.754 63.5614 118.181C63.729 118.84 63.7471 119.555 63.4901 120.184C63.2332 120.813 62.6711 121.338 61.9983 121.439C62.0929 122.604 61.8582 123.794 61.328 124.836C62.3052 123.116 63.2824 121.396 64.26 119.675C64.4403 119.358 64.621 119.04 64.7566 118.701C64.9074 118.323 65 117.926 65.0783 117.528Z" fill="#DC7029"/>
<path d="M69.1445 113.91C69.8943 113.375 70.9535 113.739 71.7074 114.268C73.4221 115.471 74.5141 117.413 75.0398 119.439C75.5655 121.466 75.5737 123.589 75.4774 125.68C75.4626 125.992 75.4073 126.366 75.1226 126.497C74.7399 126.672 74.3621 126.256 74.1453 125.895C72.9968 123.989 71.8483 122.082 70.7003 120.175C70.0865 119.156 69.471 118.134 68.9703 117.055C68.7294 116.536 68.5127 115.992 68.4918 115.421C68.4709 114.85 68.6786 114.242 69.1445 113.91Z" fill="#EDA263"/>
<path d="M70.0102 114.082C69.7697 114.082 69.5689 114.142 69.3973 114.264C69.0293 114.526 68.9129 115.025 68.9269 115.405C68.9449 115.904 69.1481 116.405 69.3653 116.872C69.8578 117.933 70.4757 118.959 71.0731 119.951L74.5182 125.671C74.6993 125.971 74.882 126.102 74.9361 126.103C74.9435 126.1 75.0242 126.048 75.0422 125.66C75.1332 123.686 75.1446 121.579 74.6181 119.548C74.0646 117.415 72.9419 115.666 71.457 114.624C70.9666 114.28 70.4392 114.082 70.0102 114.082ZM74.9365 126.103V126.538V126.103ZM74.9365 126.973C74.3711 126.973 73.9638 126.438 73.772 126.12L70.3269 120.399C69.7173 119.388 69.0875 118.341 68.5753 117.238C68.3201 116.688 68.0804 116.089 68.0562 115.436C68.0283 114.664 68.3483 113.943 68.8916 113.556C69.2112 113.328 69.5878 113.212 70.0102 113.212C70.8371 113.212 71.5853 113.651 71.9577 113.912C73.6118 115.073 74.8562 116.997 75.4614 119.33C76.0186 121.479 76.0022 123.756 75.9125 125.7C75.9018 125.931 75.8695 126.632 75.3044 126.892C75.1868 126.946 75.0631 126.973 74.9365 126.973Z" fill="#292625"/>
<path d="M72.1369 117.848C72.0628 118.606 72.1914 119.383 72.5069 120.076C72.6188 120.321 72.7568 120.561 72.9605 120.738C73.1641 120.915 73.4427 121.022 73.7074 120.969C73.5821 121.671 73.7984 122.387 74.0631 123.049C74.2352 123.479 74.4286 123.901 74.6429 124.311C74.5036 124.249 74.4032 124.125 74.3089 124.006C73.8189 123.384 73.3481 122.748 72.8773 122.111C72.6646 121.824 72.452 121.536 72.2393 121.249C72.1078 121.071 71.9763 120.893 71.8501 120.712C70.97 119.446 70.3492 118.001 70.0378 116.492C69.9448 116.043 69.887 115.544 70.1259 115.153C70.6131 116.182 71.154 117.271 72.1369 117.848Z" fill="#DC7029"/>
<path d="M70.4094 118.475C70.4094 121.583 69.1957 127.357 67.6986 127.357C66.2018 127.357 64.9881 121.583 64.9881 118.475C64.9881 115.366 66.2018 112.846 67.6986 112.846C69.1957 112.846 70.4094 115.366 70.4094 118.475Z" fill="#EDA263"/>
<path d="M67.6985 113.281C66.6225 113.281 65.4236 115.414 65.4236 118.474C65.4236 121.948 66.763 126.922 67.6985 126.922C68.6343 126.922 69.9737 121.948 69.9737 118.474C69.9737 115.414 68.7744 113.281 67.6985 113.281ZM67.6985 127.792C65.6227 127.792 64.5525 121.261 64.5525 118.474C64.5525 115.074 65.9345 112.411 67.6985 112.411C69.4628 112.411 70.8448 115.074 70.8448 118.474C70.8448 121.261 69.7742 127.792 67.6985 127.792Z" fill="#292625"/>
<path d="M62.7845 116.684C62.7992 116.885 62.9307 117.057 63.0688 117.203C63.188 117.33 63.3335 117.455 63.5072 117.458C63.7813 117.461 63.9547 117.174 64.0698 116.926C64.2189 116.606 64.3697 116.279 64.4091 115.927C64.448 115.576 64.3566 115.191 64.0882 114.96C63.726 115.293 63.3876 115.652 63.0762 116.033C62.9217 116.222 62.766 116.441 62.7845 116.684Z" fill="#F3ED99"/>
<path d="M62.3055 117.643C62.1884 117.665 62.1138 117.777 62.056 117.881C61.5377 118.82 61.3033 119.914 61.3918 120.983C61.4017 121.098 61.4324 121.235 61.5418 121.272C61.6754 121.316 61.7909 121.173 61.8593 121.05C62.1298 120.563 62.4002 120.076 62.6706 119.589C62.8198 119.32 62.9734 119.034 62.9603 118.727C62.9468 118.42 62.6079 117.585 62.3055 117.643Z" fill="#F3ED99"/>
<path d="M61.0502 124.419C61.2674 123.917 61.3973 123.377 61.4321 122.831C61.4444 122.641 61.444 122.443 61.3694 122.268C61.2948 122.092 61.1301 121.943 60.9392 121.939C60.7781 122.444 60.6872 122.97 60.6691 123.499C60.6577 123.834 60.6847 124.195 60.8953 124.457C60.9129 124.478 60.9343 124.5 60.9617 124.502C61.0047 124.504 61.033 124.459 61.0502 124.419Z" fill="#F3ED99"/>
<path d="M66.1043 118.491C66.1743 118.727 66.3083 118.977 66.5455 119.043C66.7779 119.108 67.0282 118.962 67.1585 118.759C67.2892 118.557 67.3269 118.31 67.3568 118.071C67.5178 116.791 67.5518 115.495 67.4584 114.208C67.4486 114.07 67.3908 113.89 67.2536 113.9C67.1831 113.904 67.129 113.962 67.0848 114.018C66.4476 114.81 66.1706 115.834 66.044 116.843C65.9748 117.392 65.9465 117.96 66.1043 118.491Z" fill="#F3ED99"/>
<path d="M66.704 119.549C66.6061 119.57 66.5127 119.624 66.459 119.709C66.4275 119.759 66.4111 119.817 66.3971 119.875C66.2152 120.623 66.3644 121.411 66.5791 122.15C66.6327 122.334 66.6938 122.524 66.8253 122.664C66.8995 122.743 67.006 122.805 67.113 122.785C67.2732 122.755 67.3436 122.568 67.3797 122.409C67.5067 121.845 67.5596 121.265 67.544 120.687C67.5366 120.417 67.5112 120.137 67.3764 119.902C67.2412 119.667 66.9687 119.492 66.704 119.549Z" fill="#F3ED99"/>
<path d="M72.4051 115.945C72.0487 115.544 71.6647 115.149 71.1804 114.919C71.114 114.888 71.0374 114.859 70.9686 114.884C70.9153 115.186 71.0059 115.498 71.1583 115.764C71.3107 116.029 71.5221 116.255 71.7315 116.479C71.9065 116.665 72.0814 116.852 72.256 117.039C72.41 117.203 72.6043 117.382 72.8259 117.344C72.9648 117.121 72.9513 116.83 72.8522 116.587C72.7534 116.344 72.5797 116.14 72.4051 115.945Z" fill="#F3ED99"/>
<path d="M73.8204 119.243C73.9232 118.785 73.6909 118.322 73.4233 117.937C73.3471 117.827 73.2176 117.707 73.1005 117.77C72.8948 118.221 72.9026 118.765 73.1218 119.21C73.1722 119.313 73.2361 119.413 73.3303 119.478C73.425 119.543 73.5553 119.566 73.6552 119.51C73.7495 119.457 73.797 119.348 73.8204 119.243Z" fill="#F3ED99"/>
<path d="M67.6079 126.281C68.0963 126.272 68.386 125.743 68.5512 125.284C69.4632 122.747 69.7603 119.992 69.4104 117.319C69.2387 116.011 68.8458 114.614 67.7845 113.829C68.0861 116.639 68.2008 119.47 68.1275 122.296C68.114 122.814 68.0943 123.331 68.0664 123.849C68.0218 124.678 67.9513 125.525 67.6079 126.281Z" fill="#DC7029"/>
<path d="M104.386 43.9594C103.83 34.6897 99.6549 24.9297 92.4279 18.1633C88.8452 14.8088 74.7051 7.2659 60.4749 7.23766C46.0009 7.2086 31.4339 14.7514 27.7897 18.1633C20.5623 24.9297 16.3871 34.6897 15.8319 43.9594C15.2771 53.2291 14.4941 60.4003 17.6368 69.2615C18.0773 70.5029 21.9075 70.5295 23.3863 70.5368C24.9986 70.5446 25.7828 68.8096 25.9524 67.3992C26.3872 63.7868 25.6849 60.1482 25.6591 56.5157C25.6333 52.8828 27.5303 42.0357 29.2705 38.5719C31.4888 34.1556 35.7128 32.0089 39.3435 31.1563C45.9329 29.6088 50.8543 30.2571 57.4441 28.7096H62.7735C69.3633 30.2571 74.2843 29.6088 80.8741 31.1563C84.5048 32.0089 88.7284 34.1556 90.9471 38.5719C92.6873 42.0357 94.5844 52.8828 94.5585 56.5157C94.5327 60.1482 93.8304 63.7868 94.2652 67.3992C94.4348 68.8096 95.2186 70.5446 96.8314 70.5368C98.3101 70.5295 102.128 69.7227 102.568 68.4814C105.711 59.6202 104.94 53.2291 104.386 43.9594Z" fill="#795B26"/>
<path d="M57.444 28.1291H62.7734C62.8185 28.1291 62.8631 28.1344 62.9066 28.1446C66.1578 28.9084 69.0612 29.1351 71.8692 29.3545C74.7205 29.5772 77.6686 29.8076 81.0067 30.5914C83.7934 31.2459 88.8577 33.1188 91.4661 38.3115C93.2292 41.8212 95.1656 52.7845 95.139 56.5197C95.1292 57.8957 95.0227 59.2853 94.9198 60.6286C94.751 62.8379 94.576 65.1226 94.8415 67.3299C94.9591 68.3057 95.5078 69.9563 96.8202 69.9568V70.5367L96.8284 69.9564C98.6062 69.9478 101.755 69.0346 102.021 68.2877C104.843 60.3294 104.471 54.4924 103.957 46.4138C103.907 45.6276 103.855 44.8225 103.806 43.9941C103.234 34.4527 98.8324 24.9546 92.0307 18.5864C88.6582 15.4292 74.7882 7.84617 60.474 7.81752H60.3912C45.8471 7.81752 31.4604 15.5212 28.1866 18.5864C21.385 24.9546 16.9832 34.4527 16.4116 43.9941C16.3661 44.7558 16.319 45.5027 16.2727 46.2382C15.7511 54.5109 15.3389 61.0456 18.1841 69.0678C18.2558 69.2708 18.8438 69.9338 23.389 69.9564C24.7096 69.9568 25.2582 68.3057 25.3758 67.3299C25.6413 65.1226 25.4664 62.8379 25.2976 60.6286C25.1947 59.2853 25.0882 57.8957 25.0784 56.5197C25.0517 52.7845 26.9881 41.8212 28.7512 38.3115C31.3596 33.1188 36.424 31.2459 39.2106 30.5914C42.5488 29.8076 45.4968 29.5772 48.3482 29.3545C51.1561 29.1351 54.0595 28.9084 57.3108 28.1446C57.3542 28.1344 57.3989 28.1291 57.444 28.1291ZM96.8202 71.1167C94.96 71.1167 93.9069 69.2843 93.6885 67.4683C93.4091 65.148 93.5886 62.8056 93.7619 60.5402C93.8631 59.2165 93.968 57.8474 93.9774 56.5111C94.0028 52.9633 92.0955 42.1515 90.4283 38.8317C88.0313 34.0614 83.33 32.3288 80.7408 31.721C77.4896 30.9573 74.5862 30.7301 71.7782 30.5112C68.9457 30.2897 66.0173 30.061 62.7066 29.2894H57.5107C54.2001 30.061 51.2717 30.2897 48.4391 30.5112C45.6312 30.7301 42.7278 30.9573 39.4761 31.721C36.8874 32.3288 32.1861 34.0614 29.7891 38.8317C28.1219 42.1515 26.2146 52.9633 26.24 56.5111C26.2494 57.8474 26.3543 59.2165 26.4555 60.5402C26.6288 62.8056 26.8083 65.148 26.5288 67.4683C26.3104 69.2843 25.2574 71.1167 23.3972 71.1167C20.4151 71.102 17.5982 70.8903 17.0893 69.4554C14.1646 61.2093 14.5833 54.5702 15.1135 46.165C15.1598 45.4311 15.207 44.685 15.2524 43.9249C15.8408 34.0945 20.3795 24.3059 27.3926 17.74C30.8761 14.4784 45.319 6.65759 60.3912 6.65759H60.476C75.1164 6.68665 89.3539 14.4906 92.8248 17.74C99.8379 24.3059 104.377 34.0945 104.965 43.9249C105.015 44.7517 105.066 45.5555 105.116 46.3406C105.62 54.2473 106.018 60.4927 103.115 68.6749C102.482 70.4594 97.9383 71.1114 96.8341 71.1167C96.8333 71.1167 96.821 71.1167 96.8202 71.1167Z" fill="#292625"/>
<path d="M15.699 38.8743C14.9586 41.1827 15.0713 43.6814 15.4573 46.075C18.4807 42.0594 22.2376 38.5968 26.4874 35.9093C25.8199 33.7286 25.1525 31.5479 24.4854 29.3672C20.8756 31.8811 17.0417 34.6884 15.699 38.8743Z" fill="#7D3325"/>
<path d="M24.2442 30.0672C20.4819 32.7109 17.3147 35.2636 16.1137 39.007C15.5733 40.6917 15.4524 42.6133 15.7433 44.9925C18.6258 41.3518 22.0623 38.2375 25.9745 35.7208L24.2442 30.0672ZM15.4573 46.5102C15.4225 46.5102 15.3877 46.5057 15.3528 46.4971C15.1832 46.4553 15.0554 46.3166 15.0275 46.1443C14.544 43.1466 14.626 40.7944 15.2844 38.7418C16.7287 34.2388 21.0679 31.2169 24.2364 29.0104C24.3507 28.9306 24.4957 28.911 24.6277 28.956C24.7592 29.0018 24.8612 29.1074 24.9018 29.2405L26.9042 35.7826C26.9615 35.9696 26.8861 36.1722 26.7206 36.277C22.4888 38.953 18.8168 42.3374 15.8056 46.3366C15.722 46.4471 15.5921 46.5102 15.4573 46.5102Z" fill="#292625"/>
<path d="M104.427 38.8743C105.168 41.1827 105.055 43.6814 104.669 46.075C101.646 42.0594 97.8888 38.5968 93.639 35.9093C94.3064 33.7286 94.9739 31.5479 95.6414 29.3672C99.2507 31.8811 103.085 34.6884 104.427 38.8743Z" fill="#7D3325"/>
<path d="M94.152 35.7208C98.0646 38.2375 101.501 41.3523 104.384 44.9925C104.675 42.6133 104.553 40.6921 104.013 39.007C102.812 35.2636 99.6446 32.7109 95.8828 30.0672L94.152 35.7208ZM104.669 46.5102C104.534 46.5102 104.405 46.4471 104.321 46.3366C101.311 42.3378 97.6381 38.9534 93.4063 36.277C93.2404 36.1722 93.165 35.9696 93.2223 35.7826L95.2247 29.2405C95.2657 29.1074 95.3673 29.0018 95.4993 28.956C95.6304 28.9106 95.7758 28.9306 95.8906 29.0104C99.0587 31.2169 103.398 34.2388 104.843 38.7418C105.501 40.7944 105.583 43.1466 105.099 46.1443C105.071 46.3166 104.943 46.4553 104.774 46.4971C104.739 46.5057 104.704 46.5102 104.669 46.5102Z" fill="#292625"/>
<path d="M50.8096 7.1116C48.5269 6.09655 45.8915 7.04243 43.5896 8.01368C38.1147 10.3245 32.5853 12.8704 28.3252 17.0099C24.0648 21.1495 21.2425 27.221 22.4398 33.0362C22.6905 34.2522 23.1478 35.4911 24.0926 36.2974C25.2288 37.2675 26.8858 37.4287 28.3387 37.0796C29.7917 36.7305 31.0922 35.9377 32.3656 35.1567C38.3089 31.5124 44.2521 27.8677 50.195 24.2229C52.6247 22.7331 55.2753 20.9416 55.8518 18.1527C56.2419 16.2638 55.5703 14.3328 54.866 12.5372C54.0191 10.3786 52.93 8.05461 50.8096 7.1116Z" fill="#D1B86C"/>
<path d="M48.6445 7.11035C46.9884 7.11035 45.2543 7.78363 43.7588 8.41435C38.4244 10.6659 32.8622 13.2084 28.6288 17.3218C24.0131 21.8068 21.8051 27.7948 22.8663 32.9482C23.1576 34.361 23.6509 35.3483 24.3757 35.9667C25.1948 36.6662 26.2196 36.8131 26.935 36.8131C27.366 36.8131 27.8044 36.7603 28.2367 36.6564C29.6368 36.3199 30.9082 35.5402 32.1378 34.7863L49.9671 23.8525C52.4366 22.3381 54.8922 20.6436 55.4253 18.0647C55.7887 16.3063 55.1479 14.4482 54.4603 12.696C53.6589 10.654 52.6366 8.40044 50.6326 7.50941C50.029 7.24091 49.3784 7.11035 48.6445 7.11035ZM26.935 37.6833C25.6988 37.6833 24.6179 37.3186 23.8099 36.6285C22.9327 35.8795 22.3447 34.7331 22.0132 33.1238C20.8926 27.6822 23.1949 21.3881 28.0212 16.698C32.3632 12.4794 38.009 9.8968 43.4199 7.61295C45.1097 6.89996 46.9121 6.24018 48.6445 6.24018C49.4914 6.24018 50.2794 6.39981 50.9866 6.71414C53.1824 7.69072 54.3436 10.0139 55.2712 12.3788C56.0067 14.2525 56.6901 16.2486 56.2783 18.2402C55.6748 21.1597 53.0549 22.9799 50.4232 24.5937L32.5934 35.5275C31.3061 36.3171 29.9748 37.1336 28.4403 37.5024C27.9413 37.6223 27.4349 37.6833 26.935 37.6833Z" fill="#292625"/>
<path d="M49.7439 14.435C48.9896 15.6125 47.9718 16.5944 46.9642 17.564C45.1597 19.3007 43.3409 21.0483 41.2398 22.4125C40.1868 23.0969 39.0698 23.6789 38.0135 24.3579C36.4315 25.3742 34.9946 26.6004 33.4339 27.6482C32.196 28.4791 30.8824 29.1965 29.5139 29.7884C27.6389 30.5996 25.5284 31.1771 23.5645 30.6131C23.5158 31.8664 23.8751 33.154 24.6745 34.1211C25.4739 35.0879 26.7318 35.6961 27.9827 35.595C29.3689 35.4833 30.5415 34.5759 31.6433 33.7278C36.3487 30.1056 41.3705 26.907 46.5336 23.9719C48.393 22.9151 50.2995 21.871 51.8053 20.3534C53.3115 18.8357 54.3874 16.7397 54.1555 14.6151C54.0592 13.7322 53.7442 12.8866 53.3606 12.0852C52.7678 10.8459 52.0048 9.6876 51.0997 8.65373C51.3193 10.6593 50.8326 12.7356 49.7439 14.435Z" fill="#A37E33"/>
<path d="M25.4328 29.5101C26.5682 30.2325 28.0343 29.4668 29.1508 28.7153C33.4666 25.8093 37.7828 22.9033 42.0985 19.9974C45.2252 17.8924 48.6552 15.3032 49.0264 11.5549C49.1169 10.6422 48.9457 9.59684 48.1987 9.06394C47.4636 8.53963 46.4577 8.69761 45.5817 8.91577C36.9088 11.0756 29.2922 17.1458 25.2583 25.1135C24.5286 26.5546 24.0697 28.642 25.4328 29.5101Z" fill="#2E2227"/>
<path d="M69.1294 7.1116C71.412 6.09655 74.0475 7.04243 76.3494 8.01368C81.8243 10.3245 87.3537 12.8704 91.6138 17.0099C95.8742 21.1495 98.6965 27.221 97.4992 33.0362C97.2485 34.2522 96.7912 35.4911 95.8464 36.2974C94.7101 37.2675 93.0532 37.4287 91.6002 37.0796C90.1473 36.7305 88.8468 35.9377 87.5733 35.1567C81.6301 31.5124 75.6868 27.8677 69.744 24.2229C67.3143 22.7331 64.6637 20.9416 64.0872 18.1527C63.6971 16.2638 64.3687 14.3328 65.073 12.5372C65.9199 10.3786 67.009 8.05461 69.1294 7.1116Z" fill="#D1B86C"/>
<path d="M71.2945 7.11035C70.5602 7.11035 69.9099 7.24091 69.3064 7.50941C67.3028 8.40044 66.2801 10.654 65.4786 12.696C64.7911 14.4482 64.1503 16.3059 64.5137 18.0647C65.0468 20.6432 67.5023 22.3381 69.9718 23.8525L87.8012 34.7863C89.0308 35.5402 90.3026 36.3199 91.7023 36.6564C92.1349 36.7603 92.573 36.8131 93.0044 36.8131C93.7194 36.8131 94.7442 36.6662 95.5636 35.9667C96.288 35.3483 96.7818 34.3611 97.0723 32.9486C98.1339 27.7948 95.9258 21.8068 91.3101 17.3218C87.0771 13.2084 81.5145 10.6659 76.1802 8.41435C74.6846 7.78363 72.9506 7.11035 71.2945 7.11035ZM93.0044 37.6833C92.5041 37.6833 91.9977 37.6223 91.4986 37.5024C89.9646 37.1336 88.6329 36.3175 87.3455 35.5275L69.5158 24.5937C66.884 22.9799 64.2642 21.1597 63.6606 18.2402C63.2492 16.2486 63.9323 14.2525 64.6674 12.3788C65.5958 10.0135 66.757 7.69072 68.952 6.71414C69.6596 6.39981 70.4475 6.24018 71.2945 6.24018C73.0268 6.24018 74.8293 6.89996 76.519 7.61295C81.93 9.8968 87.5762 12.4794 91.9174 16.698C96.7441 21.3881 99.0464 27.6822 97.9254 33.1238C97.5943 34.7327 97.0067 35.8791 96.1295 36.6285C95.3207 37.3186 94.2402 37.6833 93.0044 37.6833Z" fill="#292625"/>
<path d="M70.0037 14.435C70.758 15.6125 71.7758 16.5944 72.7833 17.564C74.5878 19.3007 76.4066 21.0483 78.5078 22.4125C79.5608 23.0969 80.6778 23.6789 81.7341 24.3579C83.3161 25.3742 84.753 26.6004 86.3137 27.6482C87.5515 28.4791 88.8651 29.1965 90.2337 29.7884C92.1086 30.5996 94.2192 31.1771 96.1831 30.6131C96.2318 31.8664 95.8725 33.154 95.0731 34.1211C94.2737 35.0879 93.0158 35.6961 91.7649 35.595C90.3787 35.4833 89.206 34.5759 88.1043 33.7278C83.3988 30.1056 78.3771 26.907 73.214 23.9719C71.3546 22.9151 69.4481 21.871 67.9423 20.3534C66.4361 18.8357 65.3601 16.7397 65.592 14.6151C65.6883 13.7322 66.0034 12.8866 66.3869 12.0852C66.9798 10.8459 67.7427 9.6876 68.6478 8.65373C68.4282 10.6593 68.915 12.7356 70.0037 14.435Z" fill="#A37E33"/>
<path d="M94.506 29.5101C93.3706 30.2325 91.9046 29.4668 90.788 28.7153C86.4723 25.8093 82.1561 22.9033 77.8403 19.9974C74.7136 17.8924 71.2837 15.3032 70.9125 11.5549C70.8219 10.6422 70.9932 9.59684 71.7401 9.06394C72.4752 8.53963 73.4811 8.69761 74.3571 8.91577C83.0301 11.0756 90.6467 17.1458 94.6805 25.1135C95.4103 26.5546 95.8692 28.642 94.506 29.5101Z" fill="#2E2227"/>
<path d="M54.8455 12.0508C54.5517 12.3218 54.4448 12.7344 54.3514 13.1232C54.0256 14.4784 53.6999 15.8335 53.3741 17.1887C57.61 15.8675 62.1819 15.6359 66.53 16.522C65.781 14.927 65.5339 13.1011 65.8322 11.3645C62.6268 11.4672 59.4215 11.5703 56.2161 11.6731C55.7318 11.6886 55.2016 11.7218 54.8455 12.0508Z" fill="#7D3325"/>
<path d="M65.3286 11.816L56.23 12.1083C55.7907 12.1222 55.3769 12.1529 55.1413 12.3702C54.9499 12.547 54.8619 12.8618 54.7746 13.2248L53.9735 16.5573C56.3353 15.8942 58.7835 15.5586 61.2624 15.5586C62.7931 15.5586 64.3231 15.6888 65.8207 15.9462C65.3458 14.632 65.175 13.2044 65.3286 11.816ZM53.3741 17.6239C53.2651 17.6239 53.1586 17.5834 53.0766 17.5068C52.9623 17.4 52.914 17.2396 52.9504 17.0873L53.9276 13.0218C54.0211 12.6334 54.1489 12.1013 54.55 11.7313C55.0438 11.2754 55.7407 11.2533 56.2021 11.2385L65.8182 10.9295C65.9473 10.9217 66.0743 10.9803 66.1604 11.0789C66.2464 11.1771 66.2833 11.3093 66.2616 11.4382C65.983 13.0603 66.2071 14.7728 66.893 16.2695C66.9438 16.3408 66.9737 16.428 66.9737 16.5221C66.9737 16.7636 66.7672 16.9584 66.5349 16.9572C66.5025 16.9551 66.4734 16.9547 66.4427 16.9486C64.7505 16.6035 63.0074 16.4288 61.2624 16.4288C58.615 16.4288 56.005 16.8241 53.504 17.6043C53.4614 17.6178 53.4175 17.6239 53.3741 17.6239Z" fill="#292625"/>
<path d="M20.241 64.4233C19.6928 65.016 18.9946 65.5664 18.8524 66.3609C18.6467 67.5118 19.8804 68.5641 21.0457 68.4573C22.211 68.3505 23.1534 67.3821 23.5779 66.2925C24.0024 65.2034 24.0077 64.0026 24.0012 62.8336C23.9598 55.5318 23.6984 48.0115 26.2851 41.182C26.4383 40.7776 26.5874 40.2791 26.3068 39.9501C26.0351 39.6308 25.4914 39.6959 25.1788 39.975C24.8657 40.2541 24.7272 40.6745 24.6092 41.0768C23.8762 43.5751 23.4378 46.1521 23.1272 48.7372C22.867 50.9003 22.6953 53.0744 22.6122 55.2515C22.4892 58.4796 22.4364 62.0506 20.241 64.4233Z" fill="#D1B86C"/>
<path d="M100.182 64.4233C100.73 65.016 101.428 65.5664 101.57 66.3609C101.776 67.5118 100.543 68.5641 99.3773 68.4573C98.2116 68.3505 97.2696 67.3821 96.8452 66.2925C96.4207 65.2034 96.4149 64.0026 96.4215 62.8336C96.4629 55.5318 96.7247 48.0115 94.138 41.182C93.9848 40.7776 93.8356 40.2791 94.1159 39.9501C94.388 39.6308 94.9313 39.6959 95.2443 39.975C95.5569 40.2541 95.6954 40.6745 95.8134 41.0768C96.5465 43.5751 96.9849 46.1521 97.2959 48.7372C97.5556 50.9003 97.7277 53.0744 97.8105 55.2515C97.9334 58.4796 97.9867 62.0506 100.182 64.4233Z" fill="#D1B86C"/>
<path d="M36.8178 14.5783C37.2259 14.9684 36.1581 16.7439 34.4331 18.5435C32.7081 20.3432 30.979 21.4855 30.5709 21.0955C30.1632 20.7054 31.2306 18.9299 32.9556 17.1302C34.6806 15.3306 36.4097 14.1882 36.8178 14.5783Z" fill="white"/>
<path d="M81.2395 13.6426C80.9989 14.153 78.9744 13.7069 76.7172 12.6464C74.4604 11.5855 72.8259 10.3118 73.0664 9.80143C73.3065 9.29064 75.331 9.73676 77.5883 10.7976C79.8451 11.8581 81.48 13.1319 81.2395 13.6426Z" fill="white"/>
<path d="M53.6171 34.7569C49.9733 32.1137 44.9827 32.3658 40.6022 33.4087C36.2213 34.4519 31.9162 36.1783 27.4128 36.1145C23.308 36.0568 19.3798 34.5088 15.6447 32.8066C16.4531 35.828 18.7796 38.4032 21.7055 39.5157C20.314 39.5002 18.9222 39.4842 17.5307 39.4686C19.0398 41.5945 20.8389 43.5141 22.8634 45.1578C21.8141 45.3751 20.7344 45.4451 19.6662 45.3645C19.495 46.0255 20.0428 46.644 20.5804 47.0655C24.563 50.186 30.3883 50.249 34.9638 48.0863C40.9677 45.2483 45.0528 39.1674 51.2369 36.7464C52.8521 36.1145 54.7619 35.7793 56.262 36.649L53.6171 34.7569Z" fill="#F2591D"/>
<path d="M28.3812 50.0045C25.3811 50.005 22.5039 49.1254 20.3114 47.4076C19.1949 46.5329 19.115 45.7545 19.2445 45.2555C19.2973 45.0517 19.4866 44.9162 19.6985 44.9306C20.4192 44.985 21.1424 44.9682 21.8578 44.8819C20.0975 43.3548 18.5254 41.6218 17.1753 39.7202C17.0806 39.5868 17.0688 39.4117 17.145 39.2668C17.2208 39.1219 17.3662 39.0359 17.5355 39.0335L19.8136 39.0592C17.5932 37.6767 15.901 35.4501 15.2241 32.9186C15.1803 32.7561 15.2348 32.583 15.3634 32.4741C15.4925 32.3657 15.6716 32.3407 15.8256 32.4103C19.4772 34.0749 23.409 35.6228 27.4191 35.6793C30.6126 35.7292 33.7922 34.8268 36.8648 33.9587C38.0535 33.623 39.2823 33.2759 40.5008 32.9853C46.2032 31.6277 50.7021 32.105 53.8731 34.4048C54.0677 34.546 54.1107 34.8182 53.9697 35.0126C53.8284 35.207 53.5559 35.2504 53.3613 35.1092C50.4058 32.9649 46.1474 32.5355 40.7028 33.8322C39.5015 34.1179 38.2817 34.4629 37.1021 34.7961C33.9692 35.6814 30.7327 36.5978 27.4064 36.5495C23.5684 36.4954 19.8451 35.1485 16.3624 33.6062C17.3212 36.096 19.3592 38.158 21.8602 39.1088C22.0577 39.1841 22.1729 39.3896 22.1335 39.5967C22.0942 39.8038 21.9098 39.9368 21.7008 39.9507L18.3963 39.9134C19.773 41.7327 21.3649 43.3806 23.1378 44.82C23.2681 44.926 23.3259 45.0971 23.2861 45.2604C23.2464 45.4238 23.1161 45.5494 22.9518 45.5834C22.0155 45.7778 21.06 45.8588 20.1057 45.8244C20.2213 46.1826 20.595 46.5235 20.849 46.7229C24.4453 49.5404 30.0427 49.9309 34.7772 47.6929C37.5606 46.3774 39.9838 44.2998 42.3275 42.291C44.9916 40.0072 47.7462 37.6456 51.0778 36.3415C53.2343 35.4976 55.1023 35.4734 56.4802 36.2728C56.6884 36.3935 56.7592 36.6596 56.6384 36.8675C56.5179 37.0754 56.2512 37.1454 56.043 37.0255C54.6024 36.1897 52.7209 36.6334 51.3958 37.1515C48.2015 38.4019 45.5037 40.7144 42.8945 42.9512C40.5074 44.9977 38.0387 47.1137 35.1497 48.4795C32.9867 49.5019 30.6487 50.0045 28.3812 50.0045Z" fill="#292625"/>
<path d="M66.5393 34.7569C70.1836 32.1137 75.1738 32.3658 79.5547 33.4087C83.9352 34.4519 88.2407 36.1783 92.7437 36.1145C96.8489 36.0568 100.777 34.5088 104.512 32.8066C103.703 35.828 101.377 38.4032 98.451 39.5157C99.8428 39.5002 101.234 39.4842 102.626 39.4686C101.117 41.5945 99.3176 43.5141 97.2934 45.1578C98.3424 45.3751 99.422 45.4451 100.491 45.3645C100.662 46.0255 100.114 46.644 99.5761 47.0655C95.5934 50.186 89.7682 50.249 85.1931 48.0863C79.1892 45.2483 75.1037 39.1674 68.9195 36.7464C67.3047 36.1145 65.3949 35.7793 63.8949 36.649L66.5393 34.7569Z" fill="#F2591D"/>
<path d="M91.7756 50.0045C89.5077 50.0045 87.1705 49.5019 85.0067 48.4795C82.1177 47.1137 79.649 44.9977 77.2619 42.9512C74.6531 40.7144 71.9549 38.4019 68.761 37.1515C67.4359 36.633 65.554 36.1897 64.1134 37.0255C63.9052 37.145 63.6389 37.075 63.518 36.8675C63.3976 36.6596 63.468 36.3935 63.6762 36.2728C65.0541 35.4738 66.9225 35.4976 69.0786 36.3415C72.4101 37.6456 75.1652 40.0072 77.8293 42.291C80.1726 44.2998 82.5962 46.3774 85.3792 47.6929C90.1141 49.9309 95.7111 49.5412 99.3074 46.7229C99.5618 46.5239 99.9355 46.1826 100.051 45.8244C99.0964 45.858 98.1409 45.7774 97.205 45.5834C97.0403 45.5494 96.91 45.4238 96.8703 45.2604C96.8305 45.0971 96.8883 44.926 97.0186 44.82C98.7915 43.3806 100.383 41.7327 101.76 39.9134L98.456 39.9507C98.2507 39.936 98.0626 39.8038 98.0233 39.5967C97.9835 39.3896 98.0991 39.1841 98.2962 39.1088C100.797 38.158 102.836 36.096 103.794 33.6062C100.311 35.1485 96.5884 36.4954 92.7499 36.5495C89.4261 36.6006 86.1872 35.681 83.0543 34.7961C81.8747 34.4629 80.6549 34.1179 79.4535 33.8322C74.0094 32.5355 69.751 32.9653 66.7955 35.1092C66.6009 35.2504 66.3284 35.207 66.1871 35.0126C66.0457 34.8182 66.0891 34.546 66.2838 34.4048C69.4547 32.105 73.9532 31.6273 79.656 32.9853C80.8745 33.2759 82.1033 33.623 83.2916 33.9587C86.3646 34.8272 89.5417 35.7329 92.7377 35.6793C96.7474 35.6228 100.68 34.0749 104.331 32.4103C104.484 32.3407 104.664 32.3657 104.793 32.4741C104.922 32.583 104.976 32.7561 104.933 32.9186C104.255 35.4501 102.563 37.6767 100.343 39.0592L102.621 39.0335C102.774 39.0384 102.936 39.1219 103.012 39.2668C103.088 39.4117 103.076 39.5868 102.982 39.7202C101.631 41.6218 100.059 43.3548 98.299 44.8819C99.0144 44.9682 99.7368 44.985 100.458 44.9306C100.67 44.9154 100.859 45.0517 100.912 45.2555C101.041 45.7545 100.962 46.5329 99.845 47.4076C97.6529 49.1254 94.7749 50.0045 91.7756 50.0045Z" fill="#292625"/>
<path d="M26.1715 46.7819C27.1213 47.4073 28.2804 47.7584 29.4072 47.6045C30.9826 47.3897 32.2934 46.2252 33.1153 44.8659C33.9372 43.5063 34.356 41.9497 34.8317 40.4341C35.307 38.9189 35.8708 37.3853 36.9148 36.1877C32.8945 38.377 28.203 39.3163 23.6483 38.8436C23.5692 39.514 24.1756 40.0457 24.7202 40.4452C25.6384 41.1189 26.5566 41.7926 27.4753 42.4663C26.75 42.4618 26.0248 42.4573 25.2996 42.4528C24.8509 42.4503 24.2252 42.6496 24.3268 43.0863C24.3596 43.2276 24.4703 43.3356 24.5776 43.4326C25.4053 44.1804 26.3686 44.7779 27.4068 45.1868C26.9221 45.6035 25.9547 45.1246 25.6319 45.6759C25.402 46.068 25.7917 46.5322 26.1715 46.7819Z" fill="#D34B20"/>
<path d="M85.1365 36.9916C88.7992 38.9684 93.1924 39.5546 97.2459 38.6079C97.4729 39.4207 96.6428 40.1083 95.92 40.5463C95.0399 41.08 94.1598 41.6133 93.2797 42.147C93.7189 42.4712 94.2479 42.6721 94.7916 42.7217C94.7813 43.3704 94.3675 43.959 93.8439 44.3429C93.3206 44.7268 92.6946 44.94 92.0795 45.148C92.7908 44.92 93.4042 45.901 93.1387 46.5989C92.8732 47.2963 92.1324 47.6778 91.4367 47.9496C90.1357 48.4579 88.7668 48.8087 87.3733 48.9036C86.9226 48.9343 86.4358 48.9282 86.0658 48.6695C85.4561 48.2434 85.4385 47.3651 85.4721 46.6226C85.5909 43.9905 85.5209 41.1778 84.0573 38.986L85.1365 36.9916Z" fill="#D34B20"/>
<path d="M90.9078 47.9982C90.9078 56.2982 84.1721 63.027 75.8626 63.027C67.5536 63.027 60.8175 56.2982 60.8175 47.9982C60.8175 39.6982 67.5536 32.9694 75.8626 32.9694C84.1721 32.9694 90.9078 39.6982 90.9078 47.9982Z" fill="#523B1A"/>
<path d="M88.8947 48.4874C88.8947 56.0073 82.792 62.1029 75.2643 62.1029C67.7362 62.1029 61.6336 56.0073 61.6336 48.4874C61.6336 40.9678 67.7362 34.8718 75.2643 34.8718C82.792 34.8718 88.8947 40.9678 88.8947 48.4874Z" fill="#D1B86C"/>
<path d="M78.0137 58.5723C71.5145 58.5723 65.9207 54.7012 63.416 49.1414C63.5652 53.5904 66.2797 57.7488 70.6774 59.5243C74.5732 61.0972 78.8213 60.4096 81.9661 58.0803C80.702 58.4012 79.3778 58.5723 78.0137 58.5723Z" fill="#D4C18D"/>
<path d="M29.4757 47.9982C29.4757 56.2982 36.2118 63.027 44.5208 63.027C52.8299 63.027 59.566 56.2982 59.566 47.9982C59.566 39.6982 52.8299 32.9694 44.5208 32.9694C36.2118 32.9694 29.4757 39.6982 29.4757 47.9982Z" fill="#523B1A"/>
<path d="M31.4887 48.4874C31.4887 56.0073 37.5914 62.1029 45.1195 62.1029C52.6472 62.1029 58.7498 56.0073 58.7498 48.4874C58.7498 40.9678 52.6472 34.8718 45.1195 34.8718C37.5914 34.8718 31.4887 40.9678 31.4887 48.4874Z" fill="#D1B86C"/>
<path d="M31.4887 48.4874C31.4887 56.0073 37.5914 62.1029 45.1195 62.1029C52.6472 62.1029 58.7498 56.0073 58.7498 48.4874C58.7498 40.9678 52.6472 34.8718 45.1195 34.8718C37.5914 34.8718 31.4887 40.9678 31.4887 48.4874Z" fill="#D1B86C"/>
<path d="M32.795 48.4873C32.795 55.2865 38.3129 60.7984 45.1195 60.7984C51.9261 60.7984 57.444 55.2865 57.444 48.4873C57.444 41.6881 51.9261 36.1762 45.1195 36.1762C38.3129 36.1762 32.795 41.6881 32.795 48.4873Z" fill="#F3ED99"/>
<path d="M39.2155 48.4873C39.2155 51.7445 41.8587 54.3848 45.1194 54.3848C48.3797 54.3848 51.0229 51.7445 51.0229 48.4873C51.0229 45.2302 48.3797 42.5898 45.1194 42.5898C41.8587 42.5898 39.2155 45.2302 39.2155 48.4873Z" fill="#D4C18D"/>
<path d="M40.848 48.4873C40.848 50.844 42.7602 52.7542 45.1195 52.7542C47.4783 52.7542 49.3906 50.844 49.3906 48.4873C49.3906 46.131 47.4783 44.2204 45.1195 44.2204C42.7602 44.2204 40.848 46.131 40.848 48.4873Z" fill="#2E2227"/>
<path d="M45.1196 47.2374C45.1196 47.9279 45.6797 48.4874 46.3709 48.4874C47.0622 48.4874 47.6223 47.9279 47.6223 47.2374C47.6223 46.547 47.0622 45.9871 46.3709 45.9871C45.6797 45.9871 45.1196 46.547 45.1196 47.2374Z" fill="white"/>
<path d="M41.5408 39.3315C42.5553 40.3019 41.9796 42.5477 40.2546 44.3474C38.5296 46.147 36.3089 46.8191 35.2939 45.8487C34.2794 44.8782 34.8551 42.6324 36.5801 40.8328C38.3047 39.0331 40.5259 38.361 41.5408 39.3315Z" fill="white"/>
<path d="M42.3701 58.5723C48.869 58.5723 54.4627 54.7012 56.9674 49.1414C56.8183 53.5904 54.1038 57.7488 49.7061 59.5243C45.8103 61.0972 41.5625 60.4096 38.4174 58.0803C39.6814 58.4012 41.0057 58.5723 42.3701 58.5723Z" fill="#D4C18D"/>
<path d="M62.6366 49.9314C62.2605 49.5188 61.8212 49.148 61.3074 49.0203C60.8088 48.8959 60.2323 49.0518 59.9237 49.5041C59.616 49.051 59.0399 48.8938 58.5413 49.017C58.027 49.1435 57.587 49.5135 57.2096 49.9248C55.2011 52.115 54.6492 55.5759 55.1068 58.6755C55.5649 61.7751 56.8908 64.6143 58.1983 67.3926C58.2946 67.5977 59.1116 68.8694 59.9155 68.8702C60.7194 68.871 61.5106 67.6014 61.6073 67.3963C62.921 64.6213 64.2538 61.7853 64.7189 58.6866C65.1843 55.5882 64.6402 52.126 62.6366 49.9314Z" fill="#2D1615"/>
<path d="M58.3843 49.5602C58.0086 49.6281 57.7291 49.9502 57.5021 50.2674C55.8878 52.5218 55.3658 55.4626 55.5645 58.2613C55.7849 61.3629 56.8462 64.3958 58.5953 66.9236C58.8981 67.3615 59.3386 67.833 59.8475 67.7225C60.4313 67.5956 60.6055 66.8335 60.6592 66.2184C61.1046 61.13 61.434 55.8731 59.8696 51.0279C59.7508 50.6603 59.6164 50.2875 59.373 49.9928C59.1296 49.6985 58.7531 49.493 58.3843 49.5602Z" fill="#EE8B40"/>
<path d="M60.9907 49.5565C60.4793 49.6793 60.2384 50.2531 60.0868 50.7561C58.5322 55.9128 58.2991 61.4612 59.4156 66.7296C59.4947 67.1021 59.632 67.5326 59.9938 67.6513C60.4474 67.8003 60.8612 67.3521 61.1165 66.9494C63.4384 63.287 64.4894 58.8372 64.0514 54.5241C63.8789 52.8214 63.404 51.0128 62.0781 49.9285C61.7708 49.6772 61.377 49.464 60.9907 49.5565Z" fill="#F2591D"/>
<path d="M61.1164 59.3897C61.1164 63.5649 60.5256 66.9493 59.7971 66.9493C59.0685 66.9493 58.4777 63.5649 58.4777 59.3897C58.4777 55.2145 59.0685 51.83 59.7971 51.83C60.5256 51.83 61.1164 55.2145 61.1164 59.3897Z" fill="#F3DE3E"/>
<path d="M59.9721 56.875C60.2655 56.7841 60.3831 56.4358 60.4274 56.1321C60.5675 55.1727 60.4007 54.1716 59.9578 53.3092C59.2469 53.9956 58.9625 55.0593 59.1264 56.0331C59.1637 56.2561 59.2264 56.4829 59.3702 56.6576C59.514 56.832 59.7558 56.9421 59.9721 56.875Z" fill="white"/>
<path d="M60.2134 59.2874C60.0606 58.7058 59.9077 58.1242 59.7549 57.543C59.4304 58.1332 59.2833 58.8195 59.3378 59.4908C59.353 59.6766 59.3853 59.8682 59.491 60.0216C59.5968 60.1755 59.7926 60.2807 59.9721 60.2304C60.1466 60.1817 60.2581 60.0016 60.2822 59.8223C60.306 59.6426 60.2597 59.4621 60.2134 59.2874Z" fill="white"/>
<path d="M85.559 50.0349C85.4459 50.0349 85.3324 49.9911 85.2472 49.9035C82.368 46.9558 78.3517 45.2208 74.229 45.1438C70.1045 45.0624 66.0285 46.6513 63.0411 49.4905C62.8661 49.6563 62.5912 49.6493 62.4252 49.4754C62.2593 49.301 62.2662 49.0256 62.4404 48.8602C65.5925 45.8646 69.887 44.1955 74.2453 44.2737C78.5951 44.3551 82.8326 46.1855 85.8708 49.2961C86.0388 49.468 86.0356 49.7435 85.8631 49.9113C85.7787 49.9935 85.6688 50.0349 85.559 50.0349Z" fill="#292625"/>
<path d="M82.1549 46.971C82.0566 46.971 81.9579 46.9382 81.8763 46.8703C81.6915 46.7168 81.6665 46.4422 81.8202 46.2576L84.8379 42.637C84.9916 42.4524 85.2665 42.4274 85.4513 42.5809C85.6361 42.7348 85.6611 43.009 85.5074 43.1936L82.4897 46.8142C82.4036 46.9178 82.2795 46.971 82.1549 46.971Z" fill="#292625"/>
<path d="M77.1529 45.3781C77.0947 45.3781 77.0353 45.3662 76.9787 45.3412C76.7583 45.2454 76.6575 44.9888 76.7538 44.7686L78.3391 41.1382C78.4353 40.918 78.6923 40.8169 78.9127 40.9135C79.1331 41.0097 79.2335 41.2659 79.1372 41.4861L77.552 45.1165C77.4807 45.2802 77.3205 45.3781 77.1529 45.3781Z" fill="#292625"/>
<path d="M72.2339 45.1316C72.2285 45.1316 72.2232 45.1316 72.2179 45.1316C71.9774 45.1226 71.7897 44.9212 71.7983 44.681L71.9294 41.0407C71.938 40.8005 72.1265 40.6126 72.3801 40.6212C72.6207 40.6302 72.8087 40.832 72.8001 41.0718L72.669 44.7125C72.6604 44.947 72.467 45.1316 72.2339 45.1316Z" fill="#292625"/>
<path d="M67.9328 46.443C67.8087 46.443 67.6858 46.3902 67.5997 46.2883C66.8265 45.3727 66.2595 44.2758 65.9595 43.1158C65.8993 42.8834 66.0394 42.646 66.2722 42.5858C66.5037 42.5265 66.7425 42.6656 66.8028 42.8985C67.0703 43.9328 67.5759 44.911 68.2655 45.7271C68.4204 45.9109 68.3971 46.1855 68.2135 46.3402C68.1315 46.4094 68.032 46.443 67.9328 46.443Z" fill="#292625"/>
<path d="M42.0822 89.6033C39.4967 85.072 36.411 80.8424 33.7682 76.3443C31.1254 71.8457 28.9026 66.9878 28.2724 61.8099C27.5127 70.6199 31.3962 79.1524 35.9017 86.764C37.1891 88.9394 38.9469 91.3301 41.4758 91.4017C41.7028 91.4079 41.9437 91.3899 42.1305 91.2605C42.6325 90.913 42.3846 90.1333 42.0822 89.6033Z" fill="#D34B20"/>
<path d="M79.5935 92.4306C80.5765 93.158 81.8868 92.1302 82.6301 91.1594C88.7266 83.1945 92.1049 73.191 92.0836 63.1646C89.3318 70.9002 85.2008 78.0571 81.219 85.2385C80.3446 86.816 79.4653 88.4265 79.1002 90.1918C78.9367 90.9838 78.9433 91.9489 79.5935 92.4306Z" fill="#D34B20"/>
<path d="M93.4186 73.9404C93.1581 76.092 92.2247 78.0963 91.304 80.0585C90.4636 81.8496 89.6228 83.6406 88.7825 85.4317C88.301 86.4574 87.8073 87.5637 87.9925 88.6815C88.3195 88.846 88.703 88.6221 88.9869 88.3909C90.6591 87.0304 91.8178 85.1059 92.4754 83.0537C93.1326 81.0019 93.4805 76.0941 93.4186 73.9404Z" fill="#D34B20"/>
<path d="M94.8011 85.1284C95.0736 85.3658 95.5251 85.2602 95.7726 84.997C96.0201 84.7339 96.1127 84.3647 96.1836 84.0107C96.722 81.3204 96.5404 78.4901 95.662 75.8907C95.7189 78.7689 94.3037 81.5541 94.5389 84.4228C94.5598 84.6794 94.6065 84.9594 94.8011 85.1284Z" fill="#D34B20"/>
<path d="M27.2757 74.0735C28.3677 78.7923 30.9253 83.017 33.3251 87.2253C33.716 87.9113 34.1155 88.6415 34.1044 89.4306C34.0934 90.2201 33.5033 91.0592 32.7134 91.044C32.413 91.0383 32.1279 90.9139 31.8652 90.7682C29.4359 89.4232 28.5279 86.4194 28.0817 83.6809C27.7105 81.4048 27.5052 79.1017 27.4675 76.7957L27.2757 74.0735Z" fill="#D34B20"/>
<path d="M22.8145 78.2103C23.3238 76.5518 23.961 74.9326 24.7186 73.3716C24.8944 75.8265 25.0697 78.2815 25.2455 80.7364C25.3037 81.5505 25.357 82.3969 25.0542 83.1549C24.9657 83.3764 24.8431 83.5921 24.6543 83.7382C24.3027 84.0104 23.7795 83.9793 23.3992 83.7484C23.019 83.5176 22.765 83.123 22.5978 82.7108C22.0217 81.2902 22.3646 79.6759 22.8145 78.2103Z" fill="#D34B20"/>
<path d="M49.1448 91.3727C48.9702 91.4263 48.3401 89.8817 47.7373 87.9224C47.1342 85.9631 46.7872 84.3313 46.9617 84.2776C47.1363 84.224 47.7668 85.7691 48.3696 87.728C48.9723 89.6873 49.3197 91.3191 49.1448 91.3727Z" fill="#292625"/>
<path d="M51.523 91.1246C51.4427 91.1606 51.2575 90.949 51.053 90.5516C50.8551 90.1529 50.6613 89.5615 50.5757 88.8845C50.5015 88.2059 50.5527 87.5854 50.6527 87.152C50.7592 86.7181 50.8903 86.4693 50.9764 86.4857C51.0698 86.5033 51.103 86.7767 51.1181 87.195C51.1403 87.6153 51.1653 88.183 51.2325 88.8072C51.3119 89.4297 51.4197 89.988 51.4959 90.4018C51.5783 90.8123 51.6094 91.0861 51.523 91.1246Z" fill="#292625"/>
<path d="M36.7744 111.587C36.7162 111.648 36.3343 111.392 35.8103 110.867C35.2981 110.334 34.6802 109.501 34.1894 108.476C33.7202 107.44 33.4805 106.432 33.4019 105.697C33.3375 104.959 33.3871 104.502 33.4711 104.497C33.569 104.489 33.6854 104.926 33.862 105.611C34.0529 106.295 34.3479 107.22 34.7892 108.197C35.2531 109.163 35.7718 109.984 36.1725 110.571C36.5831 111.147 36.8432 111.517 36.7744 111.587Z" fill="#292625"/>
<path d="M40.0502 109.133C39.9138 109.22 39.3533 108.519 39.1656 107.454C39.0238 106.382 39.3475 105.545 39.5036 105.586C39.7036 105.628 39.6954 106.416 39.8196 107.353C39.983 108.284 40.2281 109.034 40.0502 109.133Z" fill="#292625"/>
<path d="M68.5016 108.871C68.3242 108.828 68.5073 107.454 68.9113 105.803C69.3149 104.152 69.7861 102.848 69.9635 102.892C70.1409 102.935 69.9578 104.308 69.5538 105.96C69.1502 107.611 68.679 108.915 68.5016 108.871Z" fill="#292625"/>
<path d="M72.5297 107.76C72.3568 107.701 72.5088 106.794 72.8694 105.734C73.23 104.673 73.6622 103.861 73.8351 103.92C74.0081 103.978 73.856 104.886 73.4955 105.946C73.1353 107.007 72.7026 107.819 72.5297 107.76Z" fill="#292625"/>
<path d="M83.1743 106.668C83.2567 106.69 83.2329 107.083 83.06 107.692C82.8752 108.294 82.5015 109.098 81.9217 109.878C81.3252 110.644 80.6499 111.219 80.1173 111.557C79.576 111.887 79.2035 112.015 79.1605 111.942C79.1097 111.859 79.3892 111.592 79.8304 111.189C80.2652 110.774 80.8392 110.19 81.3952 109.478C81.9336 108.752 82.343 108.043 82.6273 107.514C82.8986 106.981 83.0809 106.641 83.1743 106.668Z" fill="#292625"/>
<path d="M76.3772 65.7268C76.3903 65.8083 75.8765 65.965 75.0144 66.0587C74.1523 66.134 72.9391 66.0837 71.6464 65.7661C70.3615 65.4186 69.2756 64.8759 68.5578 64.3933C67.8485 63.8944 67.4753 63.5084 67.5261 63.4438C67.5859 63.3635 68.0534 63.6116 68.7922 63.989C69.5428 64.3516 70.5954 64.7965 71.8119 65.1264C73.0362 65.426 74.1728 65.5459 75.005 65.5917C75.8347 65.6187 76.3637 65.6282 76.3772 65.7268Z" fill="#292625"/>
<path d="M80.2128 67.9587C80.2395 68.041 79.8912 68.2366 79.2844 68.4425C78.6763 68.639 77.8019 68.8162 76.8227 68.8571C75.8426 68.8825 74.9584 68.7642 74.3384 68.6091C73.7189 68.4446 73.3583 68.2731 73.3792 68.1887C73.4013 68.0958 73.7955 68.1048 74.4097 68.1474C75.0268 68.181 75.8692 68.2199 76.8001 68.1965C77.7306 68.1572 78.5686 68.0615 79.1819 67.9866C79.792 67.9027 80.1846 67.8674 80.2128 67.9587Z" fill="#292625"/>
<path d="M42.7811 66.5884C42.7844 66.4918 43.1589 66.4222 43.7436 66.333C44.3291 66.2319 45.1236 66.0772 45.9796 65.8201C46.8293 65.5447 47.571 65.2205 48.1098 64.9705C48.6412 64.7118 48.9891 64.5558 49.0469 64.6332C49.0989 64.7015 48.8453 64.9946 48.3495 65.372C47.8488 65.7387 47.0854 66.1574 46.1766 66.4509C45.2621 66.7263 44.3959 66.816 43.7752 66.7992C43.1524 66.7709 42.777 66.6739 42.7811 66.5884Z" fill="#292625"/>
<path d="M39.5073 69.8835C39.4942 69.6764 41.0016 69.4362 42.8016 68.945C44.5876 68.4072 45.9926 67.8113 46.0918 67.9938C46.1721 68.1289 44.8511 69.0175 42.9843 69.5803C41.1028 70.0935 39.511 70.0411 39.5073 69.8835Z" fill="#292625"/>
</g>
<defs>
<clipPath id="clip0_304_4700">
<rect width="116.039" height="133.148" fill="white" transform="translate(0.980301 0.926086)"/>
</clipPath>
</defs>
</svg>
