<svg width="24" height="25" viewBox="0 0 24 25" fill="none" xmlns="http://www.w3.org/2000/svg">
<path d="M23 3.07385C22.0424 3.74933 20.9821 4.26596 19.86 4.60385C19.2577 3.91136 18.4573 3.42054 17.567 3.19778C16.6767 2.97501 15.7395 3.03105 14.8821 3.35831C14.0247 3.68556 13.2884 4.26825 12.773 5.02757C12.2575 5.78688 11.9877 6.68619 12 7.60385V8.60385C10.2426 8.64942 8.50127 8.25967 6.93101 7.4693C5.36074 6.67893 4.01032 5.51249 3 4.07385C3 4.07385 -1 13.0739 8 17.0739C5.94053 18.4718 3.48716 19.1728 1 19.0739C10 24.0739 21 19.0739 21 7.57385C20.9991 7.29531 20.9723 7.01745 20.92 6.74385C21.9406 5.73735 22.6608 4.46657 23 3.07385Z" stroke="#FF7A01" stroke-width="2" stroke-linecap="round" stroke-linejoin="round"/>
</svg>
