<svg width="24" height="25" viewBox="0 0 24 25" fill="none" xmlns="http://www.w3.org/2000/svg">
<path d="M22.54 6.49385C22.4212 6.01926 22.1793 5.58442 21.8387 5.23326C21.498 4.88209 21.0708 4.62704 20.6 4.49385C18.88 4.07385 12 4.07385 12 4.07385C12 4.07385 5.12001 4.07385 3.40001 4.53385C2.92925 4.66704 2.50198 4.92209 2.16135 5.27326C1.82072 5.62442 1.5788 6.05926 1.46001 6.53385C1.14522 8.27941 0.991243 10.0502 1.00001 11.8239C0.988786 13.6109 1.14277 15.3952 1.46001 17.1539C1.59097 17.6137 1.83831 18.032 2.17815 18.3683C2.51799 18.7047 2.93883 18.9477 3.40001 19.0739C5.12001 19.5339 12 19.5339 12 19.5339C12 19.5339 18.88 19.5339 20.6 19.0739C21.0708 18.9407 21.498 18.6856 21.8387 18.3344C22.1793 17.9833 22.4212 17.5484 22.54 17.0739C22.8524 15.3414 23.0063 13.5842 23 11.8239C23.0112 10.0368 22.8572 8.25255 22.54 6.49385V6.49385Z" stroke="#FF7A01" stroke-width="2" stroke-linecap="round" stroke-linejoin="round"/>
<path d="M9.75 15.0938L15.5 11.8238L9.75 8.55385V15.0938Z" stroke="#FF7A01" stroke-width="2" stroke-linecap="round" stroke-linejoin="round"/>
</svg>
